<svg width="561" height="565" viewBox="0 0 561 565" fill="none" xmlns="http://www.w3.org/2000/svg">
<path d="M530.684 386.092C478.617 510.481 339.924 580.165 219.648 561.368C200.077 558.309 146.422 549.198 98.9174 506.214C7.46856 423.468 -12.0885 259.62 61.6806 144.152C115.371 60.1113 211.618 12.4715 303.071 14.8545C322.769 15.3677 398.264 18.5312 464.611 74.0393C474.356 82.1924 495.849 101.566 515.22 132.302C560.707 204.474 564.616 305.026 530.684 386.092Z" fill="url(#paint0_linear_1_6016)"/>
<path d="M3.08999 362.881C11.9798 324.938 41.0494 295.152 78.0566 286.043C103.499 279.78 127.909 283.141 148.542 293.289C155.385 296.654 163.517 292.844 165.413 285.309C183.652 212.823 247.842 159.273 324.234 159.273C414.818 159.273 488.251 234.565 488.251 327.443C488.251 329.909 488.203 333.276 488.161 336.508C488.481 343.454 491.439 346.403 495.854 347.143C531.344 350.931 559.236 380.929 560.784 417.93C562.561 460.415 528.836 495.614 487.363 495.614H103.74C38.0688 495.614 -13.3499 433.048 3.08999 362.881Z" fill="url(#paint1_linear_1_6016)"/>
<path opacity="0.21" d="M32.8019 377.101C40.7392 343.222 66.6948 316.627 99.7372 308.494C122.454 302.902 144.249 305.903 162.671 314.964C168.781 317.969 176.042 314.567 177.735 307.839C194.02 243.119 251.333 195.306 319.541 195.306C400.421 195.306 465.987 262.532 465.987 345.46C465.987 347.661 465.944 350.668 465.906 353.554C466.193 359.755 468.833 362.388 472.775 363.049C504.464 366.431 529.367 393.216 530.749 426.253C532.336 464.186 502.224 495.614 465.194 495.614H122.669C64.0334 495.614 18.1233 439.751 32.8019 377.101Z" fill="#91B3FA"/>
<path d="M77.3427 541.065C77.3427 544.175 79.889 546.718 83.0011 546.718H388.987C392.099 546.718 394.645 544.174 394.645 541.065L397.191 365.224C397.191 362.115 393.528 356.045 386.815 356.501L87.7721 348.763C83.8672 348.662 80.0918 350.165 77.3266 352.921C74.5614 355.677 73.0484 359.446 73.1407 363.347L77.3427 541.065Z" fill="url(#paint2_linear_1_6016)"/>
<path d="M82.9287 535.642C82.9287 538.586 85.3377 540.995 88.2818 540.995H381.607C384.552 540.995 386.961 538.586 386.961 535.642L389.363 376.011C389.08 366.405 380.658 362.953 375.553 363.156L88.9476 355.467C86.2044 355.394 83.5519 356.45 81.609 358.389C79.666 360.327 78.5975 362.979 78.6662 365.722L82.9287 535.642Z" fill="#7D97F4"/>
<path d="M383.791 459.807C383.787 459.807 383.783 459.807 383.783 459.807C383.345 459.8 382.999 459.444 383.006 459.01L383.196 446.064C383.202 445.635 383.552 445.292 383.98 445.292C383.984 445.292 383.988 445.292 383.988 445.292C384.425 445.298 384.771 445.654 384.764 446.088L384.575 459.034C384.568 459.463 384.218 459.807 383.791 459.807Z" fill="white"/>
<path d="M384.257 428.083C384.257 428.083 384.249 428.083 384.245 428.083C383.812 428.076 383.466 427.719 383.473 427.286L384.2 377.703C384.187 374.758 383.293 372.407 381.543 370.73C378.277 367.601 373.091 367.761 372.873 367.771L281.267 365.314C280.834 365.303 280.493 364.942 280.504 364.509C280.515 364.076 280.848 363.707 281.309 363.747L372.861 366.203C373.43 366.169 378.951 366.074 382.628 369.597C384.697 371.579 385.753 374.31 385.769 377.711L385.041 427.309C385.035 427.739 384.685 428.083 384.257 428.083Z" fill="white"/>
<path d="M53.6592 561.316H412.125C412.752 561.316 413.265 560.803 413.265 560.176V547.005C413.265 546.378 412.752 545.865 412.125 545.865H53.6592C53.0323 545.865 52.5195 546.378 52.5195 547.005V560.176C52.5197 560.803 53.0325 561.316 53.6592 561.316Z" fill="url(#paint3_linear_1_6016)"/>
<path d="M210.187 533.208H97.2488C93.0847 533.208 89.709 529.833 89.709 525.668V378.25C89.709 373.973 93.2631 370.552 97.5371 370.716L210.475 375.038C214.524 375.193 217.726 378.52 217.726 382.572V525.668C217.726 529.833 214.351 533.208 210.187 533.208Z" fill="#91B3FA"/>
<path opacity="0.51" d="M187.723 438.488H112.915C112.321 438.488 111.84 438.007 111.84 437.413V429.621C111.84 429.028 112.321 428.546 112.915 428.546H187.723C188.317 428.546 188.798 429.028 188.798 429.621V437.413C188.798 438.007 188.317 438.488 187.723 438.488Z" fill="white"/>
<path opacity="0.51" d="M187.875 454.365H113.066C112.473 454.365 111.991 453.884 111.991 453.29V445.498C111.991 444.904 112.473 444.423 113.066 444.423H187.875C188.468 444.423 188.95 444.904 188.95 445.498V453.29C188.95 453.884 188.468 454.365 187.875 454.365Z" fill="white"/>
<path opacity="0.51" d="M188.326 470.574H113.517C112.924 470.574 112.442 470.093 112.442 469.499V461.707C112.442 461.113 112.924 460.632 113.517 460.632H188.326C188.92 460.632 189.401 461.114 189.401 461.707V469.499C189.401 470.093 188.92 470.574 188.326 470.574Z" fill="white"/>
<path opacity="0.51" d="M188.477 486.451H113.669C113.075 486.451 112.594 485.969 112.594 485.376V477.584C112.594 476.99 113.075 476.509 113.669 476.509H188.477C189.071 476.509 189.552 476.99 189.552 477.584V485.376C189.552 485.969 189.071 486.451 188.477 486.451Z" fill="white"/>
<path opacity="0.51" d="M351.785 438.476H243.292C242.698 438.476 242.217 437.995 242.217 437.401V429.609C242.217 429.016 242.698 428.534 243.292 428.534H351.785C352.379 428.534 352.86 429.016 352.86 429.609V437.401C352.86 437.995 352.379 438.476 351.785 438.476Z" fill="white"/>
<path opacity="0.51" d="M352.127 454.365H243.634C243.04 454.365 242.559 453.883 242.559 453.29V445.498C242.559 444.904 243.04 444.423 243.634 444.423H352.127C352.721 444.423 353.202 444.904 353.202 445.498V453.29C353.202 453.883 352.721 454.365 352.127 454.365Z" fill="white"/>
<path opacity="0.51" d="M307.046 470.574H243.634C243.04 470.574 242.559 470.093 242.559 469.499V461.707C242.559 461.113 243.04 460.632 243.634 460.632H307.046C307.639 460.632 308.121 461.113 308.121 461.707V469.499C308.121 470.093 307.639 470.574 307.046 470.574Z" fill="white"/>
<g opacity="0.51">
<path d="M300.952 391.481H299.267C298.43 391.481 297.752 390.802 297.752 389.965V384.205C297.752 382.143 296.08 380.471 294.018 380.471H283.575C281.513 380.471 279.842 382.143 279.842 384.205V389.965C279.842 390.802 279.163 391.481 278.327 391.481H276.641C275.804 391.481 275.126 390.802 275.126 389.965V384.205C275.126 379.538 278.909 375.755 283.576 375.755H294.018C298.685 375.755 302.468 379.538 302.468 384.205V389.965C302.468 390.802 301.789 391.481 300.952 391.481Z" fill="white"/>
<path d="M303.041 392.84H274.552C272.806 392.84 271.391 394.256 271.391 396.001V417.866C271.391 419.612 272.806 421.027 274.552 421.027H303.041C304.787 421.027 306.202 419.612 306.202 417.866V396.001C306.202 394.256 304.787 392.84 303.041 392.84ZM292.873 413.973C293.05 414.709 292.491 415.417 291.734 415.417H285.859C285.102 415.417 284.543 414.709 284.72 413.972L286.091 408.266C284.473 407.299 283.415 405.491 283.524 403.444C283.663 400.794 285.811 398.625 288.459 398.461C291.529 398.27 294.077 400.703 294.077 403.731C294.077 405.659 293.044 407.344 291.502 408.266L292.873 413.973Z" fill="white"/>
</g>
<path d="M383.883 136.226C383.772 136.226 383.658 136.198 383.554 136.14C383.227 135.958 383.108 135.545 383.291 135.218C383.728 134.432 384.151 133.64 384.562 132.844C384.734 132.511 385.142 132.381 385.477 132.552C385.809 132.724 385.94 133.133 385.768 133.467C385.351 134.275 384.921 135.078 384.477 135.876C384.353 136.1 384.122 136.226 383.883 136.226Z" fill="#91B3FA"/>
<path d="M304.498 182.951C304.097 182.951 303.697 182.948 303.296 182.943C302.922 182.937 302.622 182.63 302.627 182.255C302.632 181.884 302.935 181.585 303.305 181.585H303.315C305.07 181.609 306.843 181.58 308.595 181.5C308.944 181.477 309.287 181.773 309.304 182.148C309.321 182.522 309.031 182.839 308.656 182.856C307.278 182.919 305.879 182.951 304.498 182.951ZM294.677 182.421C294.652 182.421 294.628 182.42 294.603 182.417C292.83 182.225 291.044 181.979 289.293 181.685C288.923 181.623 288.674 181.273 288.736 180.904C288.797 180.534 289.149 180.282 289.517 180.347C291.243 180.636 293.003 180.879 294.749 181.068C295.122 181.108 295.391 181.443 295.351 181.815C295.313 182.163 295.019 182.421 294.677 182.421ZM317.233 182.057C316.9 182.057 316.61 181.812 316.562 181.473C316.51 181.102 316.768 180.759 317.14 180.707C318.877 180.462 320.628 180.163 322.346 179.817C322.71 179.743 323.071 179.981 323.145 180.348C323.219 180.715 322.981 181.073 322.613 181.147C320.87 181.499 319.092 181.802 317.329 182.051C317.297 182.055 317.265 182.057 317.233 182.057ZM280.958 179.864C280.9 179.864 280.841 179.856 280.782 179.841C279.063 179.381 277.335 178.865 275.646 178.306C275.29 178.189 275.098 177.805 275.216 177.449C275.333 177.094 275.715 176.901 276.073 177.018C277.736 177.568 279.438 178.077 281.132 178.53C281.495 178.626 281.709 178.998 281.613 179.36C281.532 179.664 281.258 179.864 280.958 179.864ZM330.864 179.052C330.572 179.052 330.303 178.863 330.215 178.57C330.106 178.211 330.309 177.832 330.667 177.724C332.349 177.214 334.033 176.649 335.675 176.044C336.026 175.915 336.417 176.094 336.547 176.446C336.676 176.798 336.496 177.188 336.144 177.318C334.478 177.932 332.767 178.506 331.061 179.023C330.995 179.042 330.929 179.052 330.864 179.052ZM267.791 175.236C267.7 175.236 267.607 175.217 267.519 175.178C265.887 174.459 264.259 173.683 262.68 172.873C262.347 172.702 262.215 172.292 262.386 171.959C262.558 171.627 262.966 171.494 263.3 171.665C264.856 172.464 266.459 173.228 268.066 173.936C268.409 174.088 268.564 174.489 268.413 174.831C268.301 175.085 268.052 175.236 267.791 175.236ZM343.869 173.984C343.617 173.984 343.374 173.843 343.257 173.6C343.094 173.262 343.236 172.857 343.574 172.694C345.153 171.934 346.731 171.115 348.264 170.261C348.594 170.079 349.004 170.197 349.187 170.524C349.37 170.851 349.252 171.265 348.924 171.447C347.368 172.314 345.766 173.145 344.163 173.917C344.068 173.963 343.968 173.984 343.869 173.984ZM255.5 168.637C255.374 168.637 255.247 168.603 255.134 168.53C253.635 167.569 252.147 166.551 250.709 165.505C250.407 165.285 250.34 164.86 250.56 164.557C250.782 164.254 251.206 164.188 251.509 164.408C252.923 165.438 254.39 166.44 255.867 167.387C256.182 167.589 256.274 168.009 256.071 168.325C255.941 168.527 255.723 168.637 255.5 168.637ZM355.937 166.969C355.722 166.969 355.51 166.867 355.378 166.676C355.165 166.368 355.242 165.945 355.551 165.732C356.995 164.736 358.428 163.684 359.811 162.605C360.107 162.375 360.534 162.428 360.764 162.723C360.994 163.019 360.942 163.446 360.646 163.676C359.242 164.77 357.787 165.838 356.322 166.849C356.204 166.93 356.07 166.969 355.937 166.969ZM244.374 160.223C244.213 160.223 244.053 160.167 243.924 160.052C242.596 158.877 241.28 157.643 240.015 156.384C239.75 156.12 239.748 155.69 240.013 155.425C240.277 155.16 240.706 155.158 240.972 155.422C242.219 156.661 243.515 157.878 244.824 159.036C245.104 159.284 245.131 159.713 244.882 159.994C244.748 160.145 244.561 160.223 244.374 160.223ZM366.794 158.186C366.613 158.186 366.434 158.114 366.3 157.973C366.043 157.7 366.055 157.271 366.328 157.013C367.605 155.809 368.862 154.553 370.064 153.28C370.321 153.008 370.751 152.996 371.023 153.252C371.296 153.51 371.308 153.939 371.051 154.212C369.831 155.503 368.555 156.778 367.26 158.001C367.128 158.124 366.961 158.186 366.794 158.186ZM234.656 150.203C234.461 150.203 234.268 150.12 234.134 149.959C232.996 148.594 231.883 147.175 230.824 145.742C230.601 145.44 230.666 145.016 230.966 144.792C231.27 144.57 231.694 144.635 231.916 144.935C232.959 146.347 234.056 147.745 235.177 149.091C235.417 149.378 235.378 149.807 235.089 150.046C234.963 150.152 234.809 150.203 234.656 150.203ZM376.186 147.865C376.041 147.865 375.894 147.819 375.77 147.722C375.475 147.492 375.422 147.066 375.652 146.77C376.732 145.382 377.782 143.948 378.772 142.509C378.986 142.201 379.408 142.122 379.716 142.334C380.025 142.547 380.103 142.97 379.891 143.278C378.886 144.739 377.82 146.195 376.722 147.604C376.588 147.775 376.388 147.865 376.186 147.865ZM226.57 138.827C226.34 138.827 226.115 138.709 225.988 138.497C225.068 136.966 224.185 135.392 223.364 133.821C223.191 133.489 223.319 133.079 223.652 132.905C223.983 132.732 224.394 132.86 224.568 133.193C225.376 134.74 226.245 136.29 227.152 137.799C227.344 138.12 227.24 138.537 226.919 138.73C226.809 138.795 226.689 138.827 226.57 138.827ZM220.331 126.341C220.064 126.341 219.81 126.182 219.702 125.918C219.031 124.264 218.402 122.574 217.833 120.893C217.713 120.539 217.903 120.153 218.258 120.033C218.61 119.913 218.998 120.103 219.119 120.459C219.679 122.113 220.298 123.778 220.96 125.408C221.101 125.755 220.934 126.15 220.586 126.292C220.503 126.325 220.417 126.341 220.331 126.341Z" fill="#91B3FA"/>
<path d="M216.085 113.007C215.777 113.007 215.499 112.796 215.425 112.483C215.217 111.595 215.022 110.705 214.84 109.813C214.765 109.446 215.002 109.087 215.369 109.013C215.736 108.939 216.095 109.174 216.169 109.543C216.348 110.422 216.541 111.298 216.747 112.173C216.832 112.538 216.606 112.903 216.241 112.989C216.189 113.001 216.137 113.007 216.085 113.007Z" fill="#91B3FA"/>
<path d="M227.591 43.8032C227.467 43.8032 227.343 43.7693 227.23 43.6983C226.913 43.4988 226.818 43.0793 227.018 42.7626C227.502 41.9938 227.999 41.2299 228.508 40.4724C228.717 40.1615 229.139 40.0775 229.45 40.2875C229.761 40.497 229.844 40.9185 229.635 41.2293C229.133 41.9761 228.644 42.7284 228.166 43.4865C228.037 43.6911 227.816 43.8032 227.591 43.8032Z" fill="#91B3FA"/>
<path d="M391.604 66.5368C391.311 66.5368 391.04 66.3453 390.953 66.049C390.435 64.2802 389.853 62.5048 389.226 60.7712C389.099 60.4193 389.281 60.0302 389.634 59.9025C389.985 59.7738 390.375 59.9575 390.503 60.31C391.139 62.069 391.729 63.8714 392.256 65.6674C392.361 66.0273 392.155 66.4044 391.795 66.5098C391.731 66.5282 391.667 66.5368 391.604 66.5368ZM386.346 52.8391C386.092 52.8391 385.85 52.6972 385.733 52.4547C384.933 50.7899 384.072 49.132 383.173 47.5269C382.99 47.2001 383.107 46.7867 383.434 46.6031C383.762 46.4215 384.175 46.5374 384.358 46.8641C385.269 48.493 386.144 50.1764 386.957 51.8661C387.119 52.2042 386.977 52.6097 386.639 52.772C386.544 52.818 386.444 52.8391 386.346 52.8391ZM378.935 40.1749C378.72 40.1749 378.51 40.0741 378.378 39.8852C377.322 38.3777 376.204 36.8806 375.055 35.4365C374.822 35.143 374.87 34.7161 375.163 34.4829C375.457 34.2483 375.883 34.298 376.117 34.5909C377.283 36.0576 378.418 37.5764 379.49 39.1074C379.705 39.4142 379.63 39.8371 379.323 40.0523C379.205 40.135 379.069 40.1749 378.935 40.1749ZM234.517 34.2521C234.364 34.2521 234.211 34.2011 234.084 34.0957C233.796 33.8564 233.756 33.4283 233.995 33.14C235.186 31.7058 236.441 30.2843 237.725 28.9158C237.982 28.6421 238.411 28.6288 238.685 28.8854C238.958 29.1426 238.972 29.572 238.716 29.8451C237.449 31.1936 236.212 32.5939 235.039 34.007C234.905 34.1686 234.712 34.2521 234.517 34.2521ZM369.582 28.8677C369.405 28.8677 369.228 28.7987 369.095 28.6617C367.817 27.3436 366.476 26.044 365.11 24.7987C364.833 24.5461 364.813 24.1168 365.066 23.8398C365.319 23.5615 365.748 23.5423 366.025 23.7955C367.411 25.06 368.772 26.3787 370.069 27.7167C370.33 27.9858 370.324 28.4151 370.055 28.6764C369.923 28.804 369.753 28.8677 369.582 28.8677ZM244.763 23.7495C244.574 23.7495 244.386 23.6707 244.252 23.5175C244.005 23.2351 244.034 22.8064 244.316 22.5598C245.728 21.3266 247.194 20.1224 248.674 18.9805C248.973 18.7525 249.397 18.8076 249.626 19.1031C249.854 19.4 249.799 19.8261 249.503 20.0553C248.045 21.1799 246.601 22.3661 245.21 23.5816C245.081 23.6945 244.921 23.7495 244.763 23.7495ZM358.555 19.198C358.414 19.198 358.273 19.1543 358.151 19.0642C356.671 17.9648 355.139 16.8985 353.596 15.8938C353.282 15.6896 353.193 15.269 353.398 14.9547C353.602 14.6413 354.021 14.5517 354.337 14.7565C355.903 15.7765 357.459 16.8588 358.96 17.9747C359.261 18.198 359.324 18.6235 359.1 18.9243C358.967 19.1033 358.762 19.198 358.555 19.198ZM256.555 15.0103C256.329 15.0103 256.107 14.897 255.979 14.6902C255.78 14.3722 255.878 13.9539 256.196 13.7557C257.783 12.7676 259.424 11.8146 261.072 10.9246C261.404 10.745 261.814 10.8702 261.992 11.199C262.17 11.529 262.047 11.9406 261.718 12.1188C260.093 12.9956 258.477 13.9339 256.913 14.9075C256.802 14.9773 256.678 15.0103 256.555 15.0103ZM346.109 11.4371C346.005 11.4371 345.899 11.4133 345.799 11.3615C344.163 10.5179 342.477 9.714 340.789 8.97181C340.446 8.82144 340.29 8.42112 340.442 8.07784C340.591 7.73456 340.992 7.57753 341.336 7.72992C343.049 8.48279 344.76 9.29856 346.421 10.1555C346.754 10.327 346.884 10.7366 346.713 11.0694C346.592 11.3032 346.355 11.4371 346.109 11.4371ZM269.602 8.2911C269.336 8.2911 269.084 8.13408 268.975 7.87304C268.831 7.52714 268.996 7.13024 269.342 6.98571C271.065 6.26932 272.839 5.59526 274.612 4.98429C274.968 4.86295 275.353 5.04981 275.475 5.40437C275.597 5.75894 275.409 6.14536 275.055 6.26731C273.308 6.86961 271.561 7.53299 269.863 8.2395C269.778 8.27457 269.689 8.2911 269.602 8.2911ZM332.57 5.79401C332.501 5.79401 332.43 5.78333 332.361 5.76095C330.609 5.19292 328.815 4.67206 327.03 4.21227C326.666 4.11874 326.448 3.74845 326.541 3.38582C326.635 3.02259 327.011 2.80469 327.368 2.89741C329.18 3.36465 331.001 3.89338 332.779 4.47008C333.136 4.58538 333.331 4.96837 333.215 5.32495C333.123 5.61179 332.856 5.79401 332.57 5.79401ZM283.563 3.77808C283.256 3.77808 282.977 3.56744 282.903 3.2552C282.817 2.89076 283.043 2.5249 283.408 2.43883C285.233 2.00867 287.092 1.63093 288.932 1.31627C289.31 1.25661 289.653 1.50111 289.716 1.87039C289.779 2.24028 289.531 2.59082 289.162 2.65371C287.348 2.96393 285.517 3.33623 283.719 3.76034C283.667 3.77224 283.615 3.77808 283.563 3.77808ZM318.297 2.409C318.263 2.409 318.228 2.40638 318.193 2.40094C316.371 2.12136 314.516 1.89539 312.681 1.72829C312.308 1.69442 312.033 1.36384 312.066 0.990733C312.101 0.617621 312.423 0.341264 312.804 0.376338C314.667 0.546062 316.55 0.776054 318.399 1.05967C318.769 1.11671 319.023 1.46261 318.967 1.8331C318.915 2.16913 318.626 2.409 318.297 2.409ZM298.071 1.57651C297.717 1.57651 297.419 1.30277 297.395 0.945581C297.368 0.57126 297.65 0.247127 298.024 0.221326C299.887 0.0901015 301.782 0.0159243 303.655 0H303.661C304.034 0 304.337 0.300143 304.34 0.67265C304.343 1.04778 304.042 1.35397 303.667 1.35719C301.821 1.37312 299.954 1.44609 298.119 1.57449C298.102 1.5759 298.086 1.57651 298.071 1.57651Z" fill="#91B3FA"/>
<path d="M394.184 78.0904C393.855 78.0904 393.566 77.8512 393.514 77.5166C393.376 76.6304 393.225 75.7457 393.059 74.8624C392.991 74.494 393.234 74.1394 393.602 74.0705C393.969 74.0068 394.325 74.2454 394.394 74.6133C394.561 75.5099 394.715 76.4079 394.855 77.3073C394.913 77.6778 394.66 78.0251 394.289 78.0828C394.253 78.0878 394.218 78.0904 394.184 78.0904Z" fill="#91B3FA"/>
<path d="M374.195 89.4454C374.232 88.9819 373.97 88.5462 373.543 88.3609L361.378 83.0763C360.438 76.9539 358.515 70.9371 355.586 65.2757L362.299 53.8466C362.535 53.4456 362.489 52.9397 362.188 52.5863L351.846 40.4968C351.543 40.1434 351.05 40.0209 350.618 40.1912L338.287 45.0533C333.148 41.2823 327.501 38.4504 321.598 36.5738L318.262 23.7366C318.145 23.2867 317.755 22.9605 317.292 22.9245L301.43 21.6886C300.966 21.6525 300.531 21.9144 300.346 22.3409L295.061 34.5062C288.939 35.446 282.922 37.369 277.261 40.2986L265.831 33.5853C265.43 33.3496 264.925 33.3944 264.571 33.6967L252.481 44.0388C252.128 44.341 252.006 44.834 252.176 45.2666L257.038 57.5978C253.267 62.7371 250.435 68.383 248.559 74.2861L235.721 77.6227C235.272 77.7398 234.945 78.1295 234.909 78.5927L233.673 94.4541C233.637 94.9177 233.899 95.3531 234.326 95.5383L246.491 100.823C247.43 106.945 249.353 112.962 252.283 118.623L245.569 130.053C245.334 130.454 245.379 130.96 245.681 131.313L256.023 143.403C256.325 143.756 256.818 143.879 257.251 143.708L269.582 138.846C274.721 142.617 280.367 145.449 286.271 147.325L289.607 160.162C289.724 160.613 290.114 160.939 290.577 160.975L306.439 162.211C306.902 162.247 307.338 161.985 307.523 161.558L312.808 149.393C318.93 148.453 324.947 146.53 330.608 143.601L342.038 150.314C342.438 150.55 342.944 150.505 343.298 150.203L355.387 139.861C355.741 139.559 355.863 139.066 355.693 138.633L350.831 126.302C354.602 121.162 357.433 115.516 359.31 109.614L372.147 106.277C372.598 106.16 372.924 105.77 372.96 105.307L374.195 89.4454Z" fill="#91B3FA"/>
<path opacity="0.7" d="M303.903 107.098C300.797 107.099 297.773 106.142 295.186 104.312C288.369 99.4882 286.748 90.0181 291.572 83.2015C293.909 79.8992 297.392 77.705 301.38 77.0225C305.367 76.342 309.381 77.2519 312.683 79.5879C315.985 81.9254 318.18 85.4079 318.862 89.3947C319.544 93.3822 318.633 97.3969 316.296 100.698C313.96 104.001 310.477 106.195 306.49 106.877C305.626 107.025 304.761 107.098 303.903 107.098ZM303.962 78.8375C303.219 78.8375 302.47 78.9012 301.723 79.029C298.272 79.6194 295.257 81.5188 293.234 84.3771C289.059 90.2772 290.461 98.4749 296.362 102.65C299.22 104.673 302.693 105.46 306.147 104.871C309.598 104.28 312.612 102.381 314.635 99.5227C316.658 96.6644 317.447 93.1899 316.856 89.7383C316.265 86.287 314.366 83.2723 311.507 81.2497C309.268 79.6651 306.651 78.8375 303.962 78.8375Z" fill="white"/>
<path opacity="0.7" d="M303.659 131.361C302.621 131.361 301.58 131.321 300.535 131.239C290.04 130.422 280.492 125.566 273.65 117.567C267.489 110.366 264.186 101.392 264.186 92.0153C264.186 90.9774 264.226 89.9356 264.307 88.8899C265.125 78.3958 269.98 68.8483 277.98 62.0057C285.977 55.1639 296.162 51.8456 306.657 52.6634C317.151 53.4805 326.699 58.3362 333.541 66.335C335.368 68.4703 336.966 70.7971 338.291 73.2498L336.5 74.2174C335.244 71.8912 333.728 69.6844 331.994 67.6586C325.505 60.0726 316.451 55.468 306.499 54.6926C296.547 53.9238 286.889 57.0645 279.303 63.5523C271.717 70.0416 267.113 79.0962 266.337 89.0481C266.26 90.0394 266.221 91.0275 266.221 92.0118C266.221 100.904 269.355 109.415 275.197 116.245C281.686 123.83 290.74 128.434 300.692 129.21C310.652 129.986 320.304 126.839 327.889 120.35C333.037 115.946 336.889 110.24 339.028 103.851L340.959 104.498C338.703 111.236 334.64 117.253 329.211 121.897C322.01 128.058 313.035 131.361 303.659 131.361Z" fill="white"/>
<path d="M460.427 158.502C460.31 158.502 460.19 158.471 460.082 158.407C459.759 158.216 459.653 157.8 459.844 157.477C460.3 156.707 460.736 155.92 461.139 155.138C461.311 154.806 461.719 154.676 462.054 154.847C462.387 155.018 462.517 155.428 462.346 155.761C461.93 156.567 461.481 157.376 461.012 158.169C460.885 158.383 460.659 158.502 460.427 158.502Z" fill="#91B3FA"/>
<path d="M416.628 181.214C416.61 181.214 416.593 181.214 416.575 181.212C414.734 181.067 412.885 180.813 411.079 180.456C410.711 180.383 410.472 180.026 410.544 179.659C410.618 179.291 410.976 179.051 411.341 179.124C413.097 179.471 414.893 179.719 416.681 179.859C417.055 179.889 417.334 180.216 417.305 180.589C417.276 180.945 416.979 181.214 416.628 181.214ZM425.504 181.071C425.163 181.071 424.869 180.814 424.83 180.467C424.788 180.095 425.057 179.759 425.429 179.717C427.215 179.517 429.002 179.211 430.741 178.807C431.103 178.718 431.471 178.948 431.556 179.314C431.641 179.679 431.414 180.043 431.049 180.128C429.258 180.545 427.419 180.861 425.58 181.067C425.555 181.069 425.529 181.071 425.504 181.071ZM402.703 177.927C402.617 177.927 402.531 177.911 402.447 177.877C400.741 177.184 399.056 176.381 397.439 175.49C397.112 175.309 396.991 174.897 397.172 174.569C397.353 174.241 397.765 174.122 398.094 174.302C399.665 175.166 401.302 175.946 402.959 176.62C403.305 176.761 403.473 177.157 403.332 177.504C403.224 177.768 402.971 177.927 402.703 177.927ZM439.312 177.318C439.052 177.318 438.805 177.169 438.692 176.917C438.539 176.574 438.693 176.173 439.035 176.02C440.671 175.289 442.281 174.453 443.818 173.535C444.138 173.342 444.556 173.447 444.749 173.77C444.941 174.092 444.836 174.508 444.514 174.7C442.931 175.646 441.273 176.507 439.589 177.259C439.499 177.3 439.404 177.318 439.312 177.318ZM390.442 170.563C390.289 170.563 390.135 170.512 390.008 170.406C388.597 169.228 387.237 167.95 385.965 166.609C385.707 166.337 385.718 165.907 385.99 165.649C386.262 165.392 386.692 165.403 386.949 165.674C388.186 166.979 389.507 168.219 390.877 169.364C391.165 169.604 391.204 170.032 390.963 170.319C390.83 170.48 390.637 170.563 390.442 170.563ZM451.321 169.54C451.135 169.54 450.949 169.463 450.815 169.313C450.565 169.034 450.589 168.604 450.869 168.355L451.268 167.995C452.462 166.906 453.609 165.745 454.68 164.542C454.928 164.26 455.357 164.235 455.637 164.486C455.918 164.735 455.943 165.164 455.694 165.443C454.593 166.682 453.411 167.878 452.183 168.999L451.773 169.368C451.643 169.483 451.482 169.54 451.321 169.54ZM380.981 159.832C380.758 159.832 380.539 159.722 380.409 159.519C379.415 157.967 378.502 156.339 377.696 154.678C377.533 154.341 377.673 153.935 378.01 153.771C378.349 153.608 378.753 153.749 378.917 154.085C379.7 155.698 380.586 157.28 381.552 158.787C381.754 159.103 381.663 159.522 381.347 159.724C381.233 159.798 381.106 159.832 380.981 159.832Z" fill="#91B3FA"/>
<path d="M375.209 146.71C374.909 146.71 374.635 146.509 374.554 146.205C374.32 145.323 374.109 144.421 373.927 143.526C373.852 143.159 374.089 142.801 374.457 142.726C374.824 142.651 375.183 142.888 375.256 143.255C375.434 144.125 375.639 145 375.866 145.858C375.962 146.22 375.746 146.592 375.384 146.688C375.325 146.703 375.267 146.71 375.209 146.71Z" fill="#91B3FA"/>
<path d="M380.799 109.882C380.675 109.882 380.551 109.848 380.438 109.777C380.121 109.578 380.026 109.159 380.226 108.842C380.713 108.068 381.23 107.299 381.761 106.556C381.979 106.252 382.403 106.181 382.707 106.398C383.013 106.616 383.083 107.04 382.865 107.345C382.349 108.066 381.847 108.813 381.374 109.565C381.245 109.77 381.024 109.882 380.799 109.882Z" fill="#91B3FA"/>
<path d="M463.234 116.482C462.97 116.482 462.719 116.327 462.609 116.068C461.921 114.447 461.13 112.849 460.256 111.317C460.071 110.992 460.185 110.577 460.51 110.392C460.835 110.206 461.25 110.32 461.436 110.645C462.335 112.223 463.15 113.869 463.859 115.538C464.005 115.883 463.844 116.282 463.499 116.428C463.413 116.465 463.322 116.482 463.234 116.482ZM455.829 104.509C455.638 104.509 455.447 104.429 455.312 104.271C454.966 103.864 454.612 103.462 454.249 103.064C453.42 102.156 452.547 101.272 451.651 100.434C451.377 100.177 451.363 99.7479 451.619 99.4743C451.875 99.2 452.304 99.1861 452.578 99.4425C453.5 100.305 454.399 101.215 455.25 102.149C455.624 102.558 455.989 102.972 456.346 103.391C456.588 103.677 456.554 104.105 456.269 104.348C456.141 104.456 455.985 104.509 455.829 104.509ZM388.036 101.029C387.857 101.029 387.678 100.959 387.545 100.819C387.286 100.547 387.296 100.118 387.567 99.8591C387.842 99.5973 388.12 99.3377 388.401 99.0804C389.461 98.1129 390.578 97.183 391.719 96.3169C392.017 96.0895 392.442 96.1472 392.669 96.4467C392.896 96.7448 392.838 97.1703 392.539 97.3971C391.431 98.2395 390.346 99.1427 389.317 100.082C389.043 100.333 388.772 100.586 388.505 100.841C388.373 100.967 388.204 101.029 388.036 101.029ZM445.205 95.2739C445.081 95.2739 444.955 95.2401 444.843 95.1693C443.353 94.2276 441.794 93.364 440.207 92.6019C439.869 92.4396 439.727 92.0347 439.889 91.6966C440.051 91.3586 440.454 91.2141 440.794 91.3785C442.428 92.1633 444.034 93.0526 445.568 94.0214C445.885 94.2221 445.979 94.641 445.779 94.9579C445.65 95.1619 445.43 95.2739 445.205 95.2739ZM399.551 92.9299C399.301 92.9299 399.061 92.792 398.942 92.5535C398.775 92.2175 398.912 91.8107 399.248 91.6436C400.869 90.8377 402.559 90.1173 404.27 89.5011C404.624 89.3751 405.011 89.5573 405.138 89.9101C405.265 90.2626 405.082 90.6517 404.73 90.7783C403.068 91.3767 401.426 92.0766 399.852 92.8591C399.755 92.9075 399.652 92.9299 399.551 92.9299ZM432.309 89.6448C432.251 89.6448 432.192 89.6376 432.134 89.6222C430.432 89.1703 428.685 88.8123 426.94 88.5585C426.569 88.5049 426.312 88.1602 426.366 87.7897C426.42 87.418 426.762 87.1522 427.135 87.2159C428.931 87.4769 430.73 87.8448 432.483 88.31C432.845 88.4061 433.061 88.7779 432.965 89.1403C432.883 89.4441 432.609 89.6448 432.309 89.6448ZM412.96 88.6521C412.632 88.6521 412.343 88.4136 412.29 88.0796C412.231 87.7091 412.484 87.3618 412.854 87.3035C414.642 87.0205 416.469 86.8383 418.286 86.7615C418.661 86.7537 418.977 87.0359 418.992 87.411C419.008 87.7853 418.717 88.1016 418.343 88.1175C416.578 88.1917 414.803 88.3693 413.066 88.6436C413.031 88.6494 412.995 88.6521 412.96 88.6521Z" fill="#91B3FA"/>
<path d="M466.375 127.494C466.047 127.494 465.758 127.255 465.705 126.92C465.569 126.043 465.404 125.159 465.217 124.292C465.139 123.925 465.371 123.564 465.738 123.485C466.11 123.406 466.465 123.64 466.544 124.006C466.737 124.898 466.905 125.809 467.047 126.711C467.104 127.081 466.851 127.428 466.481 127.486C466.445 127.491 466.41 127.494 466.375 127.494Z" fill="#91B3FA"/>
<path d="M456.108 132.997C456.126 132.759 455.992 132.535 455.773 132.44L449.524 129.725C449.041 126.581 448.053 123.49 446.548 120.582L449.997 114.711C450.118 114.505 450.095 114.245 449.94 114.063L444.627 107.853C444.472 107.672 444.218 107.609 443.997 107.696L437.662 110.194C435.022 108.257 432.122 106.802 429.09 105.838L427.375 99.2438C427.315 99.0128 427.115 98.8453 426.877 98.8268L418.73 98.192C418.491 98.1735 418.268 98.3079 418.173 98.527L415.458 104.776C412.313 105.259 409.222 106.246 406.314 107.752L400.443 104.303C400.237 104.182 399.977 104.205 399.796 104.36L393.586 109.673C393.404 109.828 393.341 110.081 393.429 110.304L395.927 116.638C393.989 119.278 392.535 122.178 391.571 125.21L384.977 126.924C384.746 126.984 384.578 127.184 384.559 127.423L383.925 135.57C383.906 135.808 384.04 136.032 384.26 136.127L390.509 138.842C390.991 141.987 391.979 145.077 393.484 147.986L390.035 153.857C389.915 154.062 389.937 154.322 390.093 154.504L395.405 160.714C395.56 160.896 395.814 160.959 396.036 160.871L402.37 158.373C405.01 160.311 407.911 161.765 410.943 162.729L412.657 169.323C412.717 169.554 412.917 169.722 413.155 169.741L421.303 170.376C421.541 170.394 421.765 170.26 421.86 170.04L424.574 163.792C427.719 163.309 430.81 162.321 433.718 160.816L439.589 164.265C439.795 164.385 440.055 164.362 440.236 164.207L446.446 158.895C446.628 158.74 446.691 158.486 446.604 158.264L444.106 151.93C446.043 149.29 447.497 146.39 448.462 143.357L455.056 141.643C455.287 141.583 455.454 141.383 455.473 141.145L456.108 132.997Z" fill="#91B3FA"/>
<path opacity="0.7" d="M419.998 142.56C418.301 142.56 416.649 142.038 415.236 141.038C411.511 138.402 410.626 133.228 413.261 129.504C414.538 127.699 416.442 126.5 418.62 126.128C420.799 125.754 422.992 126.253 424.796 127.529C426.6 128.806 427.799 130.709 428.172 132.887C428.545 135.066 428.047 137.26 426.77 139.064C425.493 140.868 423.59 142.067 421.412 142.439C420.94 142.521 420.467 142.56 419.998 142.56ZM420.024 128.047C418.066 128.047 416.138 128.963 414.923 130.679C412.936 133.488 413.604 137.389 416.412 139.376C417.772 140.339 419.43 140.714 421.068 140.433C422.711 140.152 424.145 139.248 425.108 137.888C426.071 136.527 426.446 134.873 426.165 133.231C425.884 131.588 424.98 130.153 423.62 129.191C422.528 128.418 421.27 128.047 420.024 128.047Z" fill="white"/>
<path opacity="0.7" d="M419.875 155.024C419.329 155.024 418.781 155.002 418.23 154.959C412.708 154.529 407.683 151.974 404.083 147.764C400.745 143.864 399.112 139.07 399.113 134.298C399.113 128.443 401.573 122.621 406.361 118.526C415.05 111.091 428.167 112.114 435.6 120.804C435.658 120.872 435.716 120.94 435.774 121.009C436.579 121.976 437.296 123.014 437.911 124.102C437.913 124.106 437.916 124.11 437.918 124.114C437.927 124.131 437.937 124.147 437.945 124.163C437.961 124.191 437.977 124.22 437.993 124.248C438.002 124.264 438.01 124.28 438.019 124.295C438.046 124.344 438.072 124.393 438.099 124.442L436.309 125.41C435.68 124.246 434.921 123.142 434.053 122.127C429.306 116.579 421.991 114.498 415.343 116.133C412.601 116.808 409.972 118.115 407.684 120.073C403.366 123.767 401.148 129.017 401.148 134.297C401.148 138.6 402.62 142.923 405.63 146.442C412.333 154.277 424.162 155.2 431.999 148.496C434.575 146.293 436.502 143.438 437.572 140.24L439.503 140.887C438.316 144.434 436.179 147.6 433.321 150.043C429.532 153.285 424.809 155.024 419.875 155.024Z" fill="white"/>
<path d="M287.73 227.83C289.403 226.263 291.665 225.485 293.949 225.69C318.375 227.886 363.946 216.121 393.73 185.647C395.798 183.531 399.568 184.727 401.938 186.498C435.062 211.255 489.968 216.381 509.029 217.429C512.971 217.646 516.17 220.705 516.578 224.633C533.911 392.048 424.909 452.713 402.301 463.422C399.83 464.592 396.921 464.422 394.599 462.977C281.925 392.794 286.745 301.523 285.187 233.896C285.134 231.604 286.057 229.398 287.73 227.83Z" fill="url(#paint4_linear_1_6016)"/>
<path opacity="0.61" d="M399.253 451.261C398.749 451.261 398.246 451.12 397.808 450.84C354.611 423.227 326.458 390.215 311.737 349.918C298.591 313.928 297.948 277.28 297.379 244.946L297.302 240.635C297.289 239.916 297.559 239.237 298.063 238.724C298.571 238.208 299.252 237.923 299.98 237.923H299.981C326.732 237.923 366.885 226.111 396.334 199.722C397.238 198.912 398.577 198.814 399.591 199.487C431.949 220.957 478.106 227.209 502.74 229.025C504.05 229.121 505.085 230.143 505.2 231.455C510.926 296.777 497.339 352.015 464.817 395.634C440.527 428.209 411.725 445.183 400.468 450.969C400.087 451.164 399.67 451.261 399.253 451.261ZM399.967 449.993C411.155 444.243 439.785 427.37 463.938 394.978C496.294 351.582 509.809 296.597 504.108 231.55C504.04 230.778 503.431 230.175 502.66 230.118C477.919 228.294 431.551 222.009 398.985 200.4C398.388 200.004 397.599 200.061 397.066 200.539C367.401 227.121 326.941 239.02 300.004 239.02H300.003C299.548 239.02 299.145 239.188 298.845 239.493C298.55 239.794 298.391 240.192 298.399 240.615L298.476 244.926C299.042 277.174 299.685 313.724 312.768 349.542C327.403 389.604 355.412 422.437 398.399 449.916C398.87 450.217 399.471 450.248 399.967 449.993Z" fill="white"/>
<path opacity="0.61" d="M438.638 291.027H433.543C431.013 291.027 428.962 288.976 428.962 286.446V269.031C428.962 262.797 423.908 257.743 417.674 257.743H386.103C379.869 257.743 374.815 262.797 374.815 269.031V286.446C374.815 288.976 372.764 291.027 370.234 291.027H365.139C362.609 291.027 360.558 288.976 360.558 286.446V269.031C360.558 254.922 371.994 243.486 386.103 243.486H417.674C431.782 243.486 443.219 254.922 443.219 269.031V286.446C443.219 288.976 441.168 291.027 438.638 291.027Z" fill="white"/>
<path opacity="0.61" d="M444.953 295.137H358.823C353.545 295.137 349.267 299.416 349.267 304.694V370.795C349.267 376.073 353.545 380.352 358.823 380.352H444.953C450.231 380.352 454.51 376.073 454.51 370.795V304.694C454.51 299.416 450.231 295.137 444.953 295.137ZM414.211 359.025C414.746 361.252 413.059 363.393 410.769 363.393H393.008C390.718 363.393 389.03 361.252 389.565 359.025L393.71 341.773C388.817 338.849 385.619 333.382 385.946 327.196C386.369 319.185 392.861 312.626 400.869 312.129C410.148 311.552 417.854 318.907 417.854 328.062C417.854 333.889 414.73 338.986 410.067 341.773L414.211 359.025Z" fill="white"/>
<path d="M71.7365 273.529C71.7365 273.529 78.7123 273.898 79.5678 288.249C79.5678 288.249 63.392 302.75 41.5417 306.202C39.9013 306.461 43.835 295.004 44.4262 293.452C47.2399 286.068 56.1013 281.312 71.7365 273.529Z" fill="url(#paint5_linear_1_6016)"/>
<path d="M150.3 256.654H135.579C135.579 256.654 90.3967 206.755 60.7631 201.72C60.7631 201.72 40.1351 228.052 61.8616 277.251C63.6095 281.209 68.4976 282.967 72.1439 280.638C73.2344 279.942 74.0175 279.008 74.4932 277.838L72.7462 235.83C72.7462 235.83 111.287 269.537 117.986 276.042C124.684 282.547 158.736 278.582 150.3 256.654Z" fill="#7D97F4"/>
<path d="M7.97996 361.42C14.1487 356.015 23.9776 349.949 38.1669 348.21L42.9656 351.145C42.9656 351.145 39.9055 355.659 34.3155 360.426C29.178 363.41 21.2447 367.452 14.6675 368.328C8.27325 369.18 7.33029 365.316 7.97996 361.42Z" fill="url(#paint6_linear_1_6016)"/>
<path d="M44.4259 293.452C48.2261 294.682 49.8978 300.067 59.5408 296.506C68.8706 293.061 75.8061 288.619 79.3744 286.057C79.454 286.751 79.5211 287.476 79.5673 288.25C79.5673 288.25 62.5116 304.473 40.6613 307.924C39.0209 308.183 37.7207 306.546 38.3123 304.994C39.3732 302.209 41.2864 297.986 44.4259 293.452Z" fill="#91B3FA"/>
<path d="M3.33305 366.036C4.54914 364.654 6.10126 363.066 7.98032 361.42C7.33045 365.316 8.27361 369.18 14.6681 368.328C21.245 367.452 29.1783 363.41 34.316 360.426C27.8768 365.918 18.0793 371.747 5.71343 371.405C2.9666 371.329 1.51809 368.099 3.33305 366.036Z" fill="#91B3FA"/>
<path d="M149.761 267.305L80.8245 268.052C80.8245 268.052 41.4569 300.623 34.3162 350.288C34.3162 350.288 33.1309 353.941 40.2471 354.566C40.2471 354.566 64.0484 339.021 79.5679 311.537C98.5972 277.838 136.297 293.007 136.297 293.007C154.408 297.004 168.824 295.517 179.373 279.283L149.761 267.305Z" fill="#7D97F4"/>
<path d="M148.133 211.773C148.133 211.773 140.712 248.965 104.35 263.678L91.4163 262.154L88.3643 267.02L118.704 267.987C118.704 267.987 144.637 257.715 158.378 229.726C158.832 228.801 166.398 213.178 148.133 211.773Z" fill="url(#paint7_linear_1_6016)"/>
<path d="M144.156 266.697C144.156 266.697 152.595 243.758 154.409 221.468C154.409 221.468 148.235 216.162 144.376 213.873C143.126 213.131 142.654 211.564 143.286 210.255C146.123 204.378 163.281 181.3 164.566 180.979C171.551 179.236 200.201 165.614 220.378 193.214C229.038 205.059 218.66 241.521 179.373 279.283C166.732 281.341 154.913 277.698 144.156 266.697Z" fill="url(#paint8_linear_1_6016)"/>
<path d="M176.674 226.494C176.674 226.494 153.228 254.256 123.252 258.314C123.252 258.314 115.505 251.252 109.744 253.773C103.983 256.295 96.084 267.425 96.084 267.425H134.574C134.574 267.425 170.967 266.143 189.153 244.074C187.689 236.352 183.307 231.739 176.674 226.494Z" fill="url(#paint9_linear_1_6016)"/>
<path d="M190.352 161.507L195.482 178.617C195.717 179.401 195.427 180.25 194.752 180.713C192.282 182.404 185.826 185.768 176.971 182.499C175.958 182.125 175.264 181.179 175.176 180.103L173.96 165.198L190.352 161.507Z" fill="url(#paint10_linear_1_6016)"/>
<path d="M160.312 147.651C160.312 147.651 162.834 165.387 169.647 170.842C176.46 176.296 189.735 172.189 194.219 158.818L185.285 135.956L160.312 147.651Z" fill="url(#paint11_linear_1_6016)"/>
<path d="M186.292 150.75C185.773 150.917 185.231 150.585 185.15 150.047C184.904 148.409 184.29 145.169 183.047 142.962C183.047 142.962 183.697 140.635 177.166 144.15C170.635 147.666 160.826 152.829 155.05 149.754C149.419 146.756 143.715 131.669 158.597 134.464C159.163 134.57 159.684 134.119 159.641 133.545C159.458 131.065 159.704 125.36 165.482 123.529C170.888 121.815 173.848 124.256 175.067 125.729C175.426 126.162 176.092 126.154 176.434 125.707C178.054 123.593 182.452 119.092 188.927 121.946C194.259 124.296 195.089 127.581 195.001 129.628C194.972 130.291 195.645 130.74 196.248 130.463C197.881 129.71 200.509 129.319 203.025 132.473C206.504 136.832 201.533 140.612 200.041 141.603C199.797 141.765 199.645 142.034 199.643 142.328C199.629 144.595 199.276 154.483 194.32 160.061C193.891 160.544 193.098 160.403 192.848 159.807L189.032 150.715C188.854 150.292 188.384 150.076 187.948 150.217L186.292 150.75Z" fill="url(#paint12_linear_1_6016)"/>
<path d="M186.211 152.596C186.211 152.596 188.541 143.105 192.081 146.187C195.621 149.268 191.158 156.051 187.103 157.343L186.211 152.596Z" fill="url(#paint13_linear_1_6016)"/>
<path d="M98.0213 269.58L80.7397 211.947C80.0348 209.596 77.9459 207.927 75.4971 207.76L52.1645 206.164C49.7928 206.001 48.0286 208.318 48.8161 210.561L68.1355 265.6C68.758 267.373 70.3498 268.626 72.2194 268.815L95.1959 271.367L98.0213 269.58Z" fill="url(#paint14_linear_1_6016)"/>
<path d="M66.1488 231.48C67.439 234.085 69.6672 235.61 71.1256 234.888C72.584 234.165 72.7202 231.468 71.43 228.864C70.1397 226.259 67.9117 224.734 66.4533 225.456C64.9949 226.179 64.8585 228.876 66.1488 231.48Z" fill="#91B3FA"/>
<path d="M95.1955 271.366C95.2329 271.366 95.2704 271.365 95.3081 271.363L144.266 268.889C145.476 268.828 146.408 267.797 146.347 266.587C146.286 265.376 145.25 264.425 144.044 264.506L95.0864 266.981C93.8762 267.042 92.9447 268.073 93.0058 269.283C93.0652 270.455 94.0344 271.366 95.1955 271.366Z" fill="url(#paint15_linear_1_6016)"/>
<path d="M154.409 221.807C154.222 221.807 154.07 221.656 154.07 221.469C154.035 211.134 158.012 197.456 158.052 197.319C158.105 197.14 158.293 197.037 158.474 197.089C158.654 197.141 158.757 197.33 158.704 197.51C158.664 197.646 154.714 211.231 154.748 221.466C154.749 221.654 154.597 221.806 154.41 221.807H154.409Z" fill="url(#paint16_linear_1_6016)"/>
<path d="M176.674 226.834C176.6 226.834 176.526 226.81 176.464 226.761C176.317 226.645 176.292 226.431 176.408 226.284C176.515 226.148 187.156 212.62 190.798 203.391C190.867 203.217 191.063 203.128 191.239 203.2C191.413 203.269 191.499 203.466 191.43 203.64C187.751 212.962 177.048 226.569 176.941 226.704C176.874 226.789 176.774 226.834 176.674 226.834Z" fill="url(#paint17_linear_1_6016)"/>
<path d="M191.759 247.634L189.823 244.897C189.715 244.744 189.751 244.531 189.904 244.423C190.057 244.314 190.269 244.351 190.377 244.504L191.996 246.793C207.096 240.174 216.444 222.109 216.537 221.927C216.622 221.76 216.826 221.693 216.993 221.779C217.16 221.864 217.227 222.068 217.141 222.235C217.047 222.421 207.488 240.9 192.012 247.526L191.759 247.634Z" fill="url(#paint18_linear_1_6016)"/>
<defs>
<linearGradient id="paint0_linear_1_6016" x1="601.099" y1="569.528" x2="195.699" y2="214.803" gradientUnits="userSpaceOnUse">
<stop stop-color="#D1C4E9"/>
<stop offset="1" stop-color="#8C67F6"/>
</linearGradient>
<linearGradient id="paint1_linear_1_6016" x1="45.126" y1="40.2591" x2="479.165" y2="713.769" gradientUnits="userSpaceOnUse">
<stop stop-color="#4F52FF"/>
<stop offset="1" stop-color="#4042E2"/>
</linearGradient>
<linearGradient id="paint2_linear_1_6016" x1="263.943" y1="533.201" x2="191.675" y2="316.398" gradientUnits="userSpaceOnUse">
<stop stop-color="#09005D"/>
<stop offset="1" stop-color="#1A0F91"/>
</linearGradient>
<linearGradient id="paint3_linear_1_6016" x1="95.7987" y1="520.243" x2="417.578" y2="598.514" gradientUnits="userSpaceOnUse">
<stop stop-color="#09005D"/>
<stop offset="1" stop-color="#1A0F91"/>
</linearGradient>
<linearGradient id="paint4_linear_1_6016" x1="646.029" y1="57.8778" x2="552.384" y2="149.486" gradientUnits="userSpaceOnUse">
<stop stop-color="#FF928E"/>
<stop offset="1" stop-color="#FE7062"/>
</linearGradient>
<linearGradient id="paint5_linear_1_6016" x1="64.6876" y1="287.17" x2="39.3986" y2="313.583" gradientUnits="userSpaceOnUse">
<stop stop-color="#09005D"/>
<stop offset="1" stop-color="#1A0F91"/>
</linearGradient>
<linearGradient id="paint6_linear_1_6016" x1="31.1398" y1="353.467" x2="-16.6954" y2="388.575" gradientUnits="userSpaceOnUse">
<stop stop-color="#09005D"/>
<stop offset="1" stop-color="#1A0F91"/>
</linearGradient>
<linearGradient id="paint7_linear_1_6016" x1="108.423" y1="223.714" x2="140.899" y2="262.333" gradientUnits="userSpaceOnUse">
<stop stop-color="#FEBBBA"/>
<stop offset="1" stop-color="#FF928E"/>
</linearGradient>
<linearGradient id="paint8_linear_1_6016" x1="269.447" y1="128.66" x2="171.726" y2="230.452" gradientUnits="userSpaceOnUse">
<stop stop-color="#FF928E"/>
<stop offset="1" stop-color="#FE7062"/>
</linearGradient>
<linearGradient id="paint9_linear_1_6016" x1="146.291" y1="258.853" x2="81.3783" y2="170.048" gradientUnits="userSpaceOnUse">
<stop stop-color="#FEBBBA"/>
<stop offset="1" stop-color="#FF928E"/>
</linearGradient>
<linearGradient id="paint10_linear_1_6016" x1="186" y1="185.261" x2="183.609" y2="163.741" gradientUnits="userSpaceOnUse">
<stop stop-color="#FEBBBA"/>
<stop offset="1" stop-color="#FF928E"/>
</linearGradient>
<linearGradient id="paint11_linear_1_6016" x1="173.246" y1="166.49" x2="183.785" y2="131.73" gradientUnits="userSpaceOnUse">
<stop stop-color="#FEBBBA"/>
<stop offset="1" stop-color="#FF928E"/>
</linearGradient>
<linearGradient id="paint12_linear_1_6016" x1="182.757" y1="102.665" x2="172.958" y2="158.552" gradientUnits="userSpaceOnUse">
<stop stop-color="#09005D"/>
<stop offset="1" stop-color="#1A0F91"/>
</linearGradient>
<linearGradient id="paint13_linear_1_6016" x1="184.162" y1="169.8" x2="194.701" y2="135.04" gradientUnits="userSpaceOnUse">
<stop stop-color="#FEBBBA"/>
<stop offset="1" stop-color="#FF928E"/>
</linearGradient>
<linearGradient id="paint14_linear_1_6016" x1="98.0214" y1="238.761" x2="48.626" y2="238.761" gradientUnits="userSpaceOnUse">
<stop stop-color="#09005D"/>
<stop offset="1" stop-color="#1A0F91"/>
</linearGradient>
<linearGradient id="paint15_linear_1_6016" x1="92.0256" y1="260.353" x2="131.522" y2="271.178" gradientUnits="userSpaceOnUse">
<stop stop-color="#09005D"/>
<stop offset="1" stop-color="#1A0F91"/>
</linearGradient>
<linearGradient id="paint16_linear_1_6016" x1="165.14" y1="73.9433" x2="149.872" y2="309.072" gradientUnits="userSpaceOnUse">
<stop stop-color="#E1473D"/>
<stop offset="1" stop-color="#E9605A"/>
</linearGradient>
<linearGradient id="paint17_linear_1_6016" x1="192.937" y1="75.7483" x2="177.669" y2="310.877" gradientUnits="userSpaceOnUse">
<stop stop-color="#E1473D"/>
<stop offset="1" stop-color="#E9605A"/>
</linearGradient>
<linearGradient id="paint18_linear_1_6016" x1="213.619" y1="77.0914" x2="198.351" y2="312.22" gradientUnits="userSpaceOnUse">
<stop stop-color="#E1473D"/>
<stop offset="1" stop-color="#E9605A"/>
</linearGradient>
</defs>
</svg>
