<svg fill="none" xmlns="http://www.w3.org/2000/svg" viewBox="0 0 13 15.34"> <path d="M1 3.62482V11.4046C1 12.5209 1 13.079 1.18711 13.4206C1.53391 14.0537 2.29394 14.4175 3.07503 14.3245C3.49645 14.2744 4.0155 13.9648 5.05359 13.3455L5.05608 13.344C5.46754 13.0986 5.6733 12.9759 5.88854 12.9078C6.28386 12.7828 6.7152 12.7828 7.11051 12.9078C7.32618 12.976 7.53275 13.0992 7.94587 13.3457C8.98397 13.9649 9.5036 14.2743 9.92502 14.3244C10.7061 14.4174 11.4661 14.0537 11.8129 13.4206C12 13.079 12 12.5208 12 11.4046V3.62212C12 2.7052 12 2.24606 11.8004 1.8955C11.6246 1.58683 11.3434 1.33607 10.9984 1.17879C10.6063 1 10.0936 1 9.06685 1H3.93351C2.90675 1 2.39299 1 2.00081 1.17879C1.65585 1.33607 1.37559 1.58683 1.19982 1.8955C1 2.2464 1 2.7061 1 3.62482Z" stroke="currentColor" stroke-width="2" stroke-linecap="round" stroke-linejoin="round"></path> </svg>