<svg fill="none" xmlns="http://www.w3.org/2000/svg" viewBox="0 0 19.5 18.5"> <path d="M16.75 4.75H2.75C1.64543 4.75 0.75 5.64543 0.75 6.75V15.75C0.75 16.8546 1.64543 17.75 2.75 17.75H16.75C17.8546 17.75 18.75 16.8546 18.75 15.75V6.75C18.75 5.64543 17.8546 4.75 16.75 4.75Z" stroke="currentColor" stroke-width="1.5" stroke-linecap="round" stroke-linejoin="round"></path> <path d="M5.75 4.75V2.75C5.75 2.21957 5.96071 1.71086 6.33579 1.33579C6.71086 0.960714 7.21957 0.75 7.75 0.75H11.75C12.2804 0.75 12.7891 0.960714 13.1642 1.33579C13.5393 1.71086 13.75 2.21957 13.75 2.75V4.75" stroke="currentColor" stroke-width="1.5" stroke-linecap="round" stroke-linejoin="round"></path> <path d="M9.75 9.75V9.76" stroke="currentColor" stroke-width="2" stroke-linecap="round" stroke-linejoin="round"></path> <path d="M0.75 10.75C3.54158 12.1567 6.62403 12.8894 9.75 12.8894C12.876 12.8894 15.9584 12.1567 18.75 10.75" stroke="currentColor" stroke-width="1.5" stroke-linecap="round" stroke-linejoin="round"></path> </svg>