<svg fill="none" xmlns="http://www.w3.org/2000/svg" viewBox="0 0 20.33 19.28"> <path d="M17.8172 6.82144L17.4815 6.63469C17.4294 6.60569 17.4037 6.59114 17.3786 6.57606C17.1282 6.4261 16.9172 6.21892 16.7633 5.97105C16.7478 5.94611 16.7332 5.91995 16.7033 5.86826C16.6735 5.81663 16.6584 5.79047 16.6445 5.76457C16.5064 5.5067 16.4317 5.21931 16.4272 4.92681C16.4268 4.89741 16.4269 4.86736 16.4279 4.80763L16.4344 4.41781C16.4449 3.79399 16.4502 3.48111 16.3625 3.20032C16.2847 2.95091 16.1544 2.72119 15.9804 2.52624C15.7838 2.30587 15.5116 2.14865 14.9666 1.83462L14.514 1.57378C13.9705 1.26062 13.6987 1.10399 13.4102 1.04428C13.155 0.99145 12.8916 0.993898 12.6372 1.05099C12.3502 1.11543 12.0818 1.27614 11.5453 1.59739L11.5423 1.59884L11.2179 1.79305C11.1666 1.82376 11.1407 1.83923 11.115 1.85352C10.8599 1.99535 10.5751 2.07377 10.2834 2.08314C10.254 2.08408 10.2241 2.08408 10.1643 2.08408C10.1049 2.08408 10.0737 2.08408 10.0443 2.08314C9.75198 2.07373 9.46662 1.99488 9.21114 1.85247C9.18539 1.83812 9.15992 1.82252 9.10853 1.79167L8.78212 1.59571C8.24196 1.27142 7.97147 1.10904 7.68284 1.04428C7.42748 0.986984 7.16318 0.985398 6.907 1.03891C6.61775 1.09932 6.34587 1.25712 5.80212 1.5727L5.7997 1.57378L5.35268 1.83322L5.34773 1.83625C4.80888 2.149 4.5388 2.30575 4.34381 2.52522C4.17078 2.71997 4.04144 2.94933 3.96403 3.19809C3.87653 3.47926 3.8812 3.7928 3.89174 4.41956L3.89829 4.80883C3.89928 4.86778 3.901 4.89707 3.90057 4.92607C3.89623 5.21916 3.82054 5.50713 3.68202 5.76547C3.66832 5.79102 3.65356 5.81657 3.62408 5.8676C3.59458 5.91867 3.5803 5.94406 3.565 5.96871C3.41034 6.2179 3.19838 6.4263 2.94647 6.5765C2.92156 6.59136 2.8953 6.60565 2.8437 6.63424L2.51226 6.81791C1.96083 7.1235 1.68517 7.27643 1.4846 7.49406C1.30715 7.68659 1.17311 7.91495 1.09129 8.16366C0.998792 8.4448 0.99887 8.76006 1.0003 9.39051L1.00147 9.90579C1.00289 10.532 1.00485 10.8449 1.09755 11.1242C1.17956 11.3712 1.31262 11.5982 1.48907 11.7896C1.68852 12.0059 1.96143 12.1579 2.50868 12.4623L2.83716 12.6451C2.89307 12.6762 2.9212 12.6915 2.94815 12.7077C3.19778 12.8581 3.40807 13.0659 3.56142 13.3136C3.57798 13.3404 3.59389 13.3682 3.62569 13.4238C3.6571 13.4786 3.67317 13.5061 3.6877 13.5336C3.82214 13.7881 3.89413 14.0709 3.89904 14.3588C3.89957 14.3899 3.89911 14.4213 3.89805 14.4845L3.89174 14.8581C3.88112 15.487 3.8765 15.8018 3.96451 16.0838C4.04238 16.3332 4.17252 16.5629 4.34649 16.7579C4.54314 16.9782 4.81576 17.1353 5.36074 17.4494L5.8133 17.7102C6.35675 18.0233 6.62837 18.1798 6.91688 18.2395C7.17213 18.2923 7.43568 18.2903 7.69 18.2332C7.97745 18.1686 8.24678 18.0074 8.78481 17.6852L9.10915 17.491C9.16046 17.4603 9.18644 17.4449 9.21215 17.4306C9.46724 17.2888 9.75172 17.2099 10.0434 17.2006C10.0728 17.1996 10.1027 17.1996 10.1625 17.1996C10.2225 17.1996 10.2524 17.1996 10.2818 17.2006C10.5742 17.21 10.8604 17.2891 11.1159 17.4315C11.1383 17.444 11.1609 17.4575 11.2004 17.4813L11.5452 17.6883C12.0855 18.0126 12.3554 18.1745 12.644 18.2393C12.8994 18.2966 13.1639 18.2989 13.4201 18.2454C13.7092 18.185 13.9817 18.0269 14.5251 17.7115L14.9789 17.4482C15.5181 17.1352 15.7884 16.9783 15.9835 16.7588C16.1565 16.564 16.286 16.3347 16.3634 16.086C16.4503 15.8069 16.4451 15.4957 16.4347 14.878L16.4279 14.4751C16.4269 14.4162 16.4268 14.3869 16.4272 14.3579C16.4315 14.0648 16.506 13.7766 16.6445 13.5183C16.6582 13.4928 16.6731 13.467 16.7024 13.4161C16.7319 13.3651 16.7472 13.3396 16.7625 13.315C16.9172 13.0658 17.1293 12.8572 17.3812 12.707C17.4059 12.6923 17.4312 12.6783 17.4816 12.6504L17.4833 12.6496L17.8147 12.4659C18.3662 12.1603 18.6424 12.0072 18.8429 11.7896C19.0204 11.5971 19.1542 11.369 19.2361 11.1203C19.328 10.8408 19.3273 10.5274 19.3259 9.90432L19.3247 9.37798C19.3233 8.75174 19.3225 8.43887 19.2298 8.15963C19.1478 7.91259 19.014 7.68557 18.8375 7.4942C18.6383 7.27811 18.365 7.12607 17.8188 6.82222L17.8172 6.82144Z" stroke="currentColor" stroke-width="2" stroke-linecap="round" stroke-linejoin="round"></path> <path d="M6.49672 9.64205C6.49672 11.6671 8.13834 13.3087 10.1634 13.3087C12.1884 13.3087 13.8301 11.6671 13.8301 9.64205C13.8301 7.61701 12.1884 5.97539 10.1634 5.97539C8.13834 5.97539 6.49672 7.61701 6.49672 9.64205Z" stroke="currentColor" stroke-width="2" stroke-linecap="round" stroke-linejoin="round"></path> </svg>