<svg width="26" height="25" viewBox="0 0 26 25" fill="none" xmlns="http://www.w3.org/2000/svg">
<path d="M1.66602 23.3337H24.3327M1.66602 23.3337V17.667L12.9993 6.33366M1.66602 23.3337L7.33268 23.3336L18.666 12.0003M12.9993 6.33366L17.0632 2.26974L17.0657 2.26733C17.6251 1.70791 17.9053 1.4277 18.2283 1.32275C18.5128 1.23031 18.8194 1.23031 19.1039 1.32275C19.4267 1.42763 19.7065 1.70752 20.2652 2.26614L22.7299 4.73085C23.2909 5.29187 23.5715 5.57252 23.6766 5.89598C23.7691 6.18051 23.7691 6.487 23.6766 6.77153C23.5716 7.09476 23.2914 7.37498 22.7311 7.9352L22.7299 7.9364L18.666 12.0003M12.9993 6.33366L18.666 12.0003" stroke="black" stroke-width="2" stroke-linecap="round" stroke-linejoin="round"/>
</svg>
