<svg fill="none" xmlns="http://www.w3.org/2000/svg" viewBox="0 0 24 24">  <path d="M6.51194 21.5355C8.12709 22.4671 10.0011 23 11.9996 23C18.0747 23 23 18.0752 23 12C23 5.92488 18.0751 1 12 1C5.92487 1 1 5.92488 1 12C1 13.9985 1.53294 15.8725 2.46446 17.4877L2.46807 17.4939C2.5577 17.6493 2.60289 17.7277 2.62337 17.8018C2.64267 17.8716 2.64807 17.9344 2.64312 18.0067C2.63781 18.0844 2.61163 18.165 2.55794 18.326L1.61827 21.145L1.61709 21.1487C1.41883 21.7435 1.3197 22.0409 1.39036 22.2391C1.45197 22.4118 1.58873 22.5482 1.7615 22.6098C1.95922 22.6803 2.25528 22.5816 2.84745 22.3842L2.85482 22.3815L5.67383 21.4418C5.83435 21.3883 5.91594 21.3612 5.9935 21.3559C6.06581 21.351 6.12817 21.3575 6.19803 21.3768C6.27228 21.3973 6.35069 21.4425 6.50689 21.5326L6.51194 21.5355Z" stroke="currentColor" stroke-width="2" stroke-linecap="round" stroke-linejoin="round"/>  <circle cx="8" cy="12" r="1.2" fill="currentColor"/>   <circle cx="12" cy="12" r="1.2" fill="currentColor"/>   <circle cx="16" cy="12" r="1.2" fill="currentColor"/> </svg>