<svg  viewBox="0 0 23 23" fill="none" xmlns="http://www.w3.org/2000/svg">
<path d="M18.5 19.9136C18.5 20.6958 19.1343 21.33 19.9167 21.33C20.6991 21.33 21.3333 20.6958 21.3333 19.9136C21.3333 19.1313 20.6991 18.4971 19.9167 18.4971C19.1343 18.4971 18.5 19.1313 18.5 19.9136Z" fill="currentColor"/>
<path d="M10 19.9136C10 20.6958 10.6343 21.33 11.4167 21.33C12.1991 21.33 12.8333 20.6958 12.8333 19.9136C12.8333 19.1313 12.1991 18.4971 11.4167 18.4971C10.6343 18.4971 10 19.1313 10 19.9136Z" fill="currentColor"/>
<path d="M1.5 19.9136C1.5 20.6958 2.13426 21.33 2.91667 21.33C3.69907 21.33 4.33333 20.6958 4.33333 19.9136C4.33333 19.1313 3.69907 18.4971 2.91667 18.4971C2.13426 18.4971 1.5 19.1313 1.5 19.9136Z" fill="currentColor"/>
<path d="M18.5 11.415C18.5 12.1973 19.1343 12.8314 19.9167 12.8314C20.6991 12.8314 21.3333 12.1973 21.3333 11.415C21.3333 10.6327 20.6991 9.99857 19.9167 9.99857C19.1343 9.99857 18.5 10.6327 18.5 11.415Z" fill="currentColor"/>
<path d="M10 11.415C10 12.1973 10.6343 12.8314 11.4167 12.8314C12.1991 12.8314 12.8333 12.1973 12.8333 11.415C12.8333 10.6327 12.1991 9.99857 11.4167 9.99857C10.6343 9.99857 10 10.6327 10 11.415Z" fill="currentColor"/>
<path d="M1.5 11.415C1.5 12.1973 2.13426 12.8314 2.91667 12.8314C3.69907 12.8314 4.33333 12.1973 4.33333 11.415C4.33333 10.6327 3.69907 9.99857 2.91667 9.99857C2.13426 9.99857 1.5 10.6327 1.5 11.415Z" fill="currentColor"/>
<path d="M18.5 2.91643C18.5 3.6987 19.1343 4.33286 19.9167 4.33286C20.6991 4.33286 21.3333 3.6987 21.3333 2.91643C21.3333 2.13416 20.6991 1.5 19.9167 1.5C19.1343 1.5 18.5 2.13416 18.5 2.91643Z" fill="currentColor"/>
<path d="M10 2.91643C10 3.6987 10.6343 4.33286 11.4167 4.33286C12.1991 4.33286 12.8333 3.6987 12.8333 2.91643C12.8333 2.13416 12.1991 1.5 11.4167 1.5C10.6343 1.5 10 2.13416 10 2.91643Z" fill="currentColor"/>
<path d="M1.5 2.91643C1.5 3.6987 2.13426 4.33286 2.91667 4.33286C3.69907 4.33286 4.33333 3.6987 4.33333 2.91643C4.33333 2.13416 3.69907 1.5 2.91667 1.5C2.13426 1.5 1.5 2.13416 1.5 2.91643Z" fill="currentColor"/>
<path d="M18.5 19.9136C18.5 20.6958 19.1343 21.33 19.9167 21.33C20.6991 21.33 21.3333 20.6958 21.3333 19.9136C21.3333 19.1313 20.6991 18.4971 19.9167 18.4971C19.1343 18.4971 18.5 19.1313 18.5 19.9136Z" stroke="currentColor" stroke-width="3" stroke-linecap="round" stroke-linejoin="round"/>
<path d="M10 19.9136C10 20.6958 10.6343 21.33 11.4167 21.33C12.1991 21.33 12.8333 20.6958 12.8333 19.9136C12.8333 19.1313 12.1991 18.4971 11.4167 18.4971C10.6343 18.4971 10 19.1313 10 19.9136Z" stroke="currentColor" stroke-width="3" stroke-linecap="round" stroke-linejoin="round"/>
<path d="M1.5 19.9136C1.5 20.6958 2.13426 21.33 2.91667 21.33C3.69907 21.33 4.33333 20.6958 4.33333 19.9136C4.33333 19.1313 3.69907 18.4971 2.91667 18.4971C2.13426 18.4971 1.5 19.1313 1.5 19.9136Z" stroke="currentColor" stroke-width="3" stroke-linecap="round" stroke-linejoin="round"/>
<path d="M18.5 11.415C18.5 12.1973 19.1343 12.8314 19.9167 12.8314C20.6991 12.8314 21.3333 12.1973 21.3333 11.415C21.3333 10.6327 20.6991 9.99857 19.9167 9.99857C19.1343 9.99857 18.5 10.6327 18.5 11.415Z" stroke="currentColor" stroke-width="3" stroke-linecap="round" stroke-linejoin="round"/>
<path d="M10 11.415C10 12.1973 10.6343 12.8314 11.4167 12.8314C12.1991 12.8314 12.8333 12.1973 12.8333 11.415C12.8333 10.6327 12.1991 9.99857 11.4167 9.99857C10.6343 9.99857 10 10.6327 10 11.415Z" stroke="currentColor" stroke-width="3" stroke-linecap="round" stroke-linejoin="round"/>
<path d="M1.5 11.415C1.5 12.1973 2.13426 12.8314 2.91667 12.8314C3.69907 12.8314 4.33333 12.1973 4.33333 11.415C4.33333 10.6327 3.69907 9.99857 2.91667 9.99857C2.13426 9.99857 1.5 10.6327 1.5 11.415Z" stroke="currentColor" stroke-width="3" stroke-linecap="round" stroke-linejoin="round"/>
<path d="M18.5 2.91643C18.5 3.6987 19.1343 4.33286 19.9167 4.33286C20.6991 4.33286 21.3333 3.6987 21.3333 2.91643C21.3333 2.13416 20.6991 1.5 19.9167 1.5C19.1343 1.5 18.5 2.13416 18.5 2.91643Z" stroke="currentColor" stroke-width="3" stroke-linecap="round" stroke-linejoin="round"/>
<path d="M10 2.91643C10 3.6987 10.6343 4.33286 11.4167 4.33286C12.1991 4.33286 12.8333 3.6987 12.8333 2.91643C12.8333 2.13416 12.1991 1.5 11.4167 1.5C10.6343 1.5 10 2.13416 10 2.91643Z" stroke="currentColor" stroke-width="3" stroke-linecap="round" stroke-linejoin="round"/>
<path d="M1.5 2.91643C1.5 3.6987 2.13426 4.33286 2.91667 4.33286C3.69907 4.33286 4.33333 3.6987 4.33333 2.91643C4.33333 2.13416 3.69907 1.5 2.91667 1.5C2.13426 1.5 1.5 2.13416 1.5 2.91643Z" stroke="currentColor" stroke-width="3" stroke-linecap="round" stroke-linejoin="round"/>
</svg>
