<svg xmlns="http://www.w3.org/2000/svg" fill="none" viewBox="0 0 24.67 25.15">
<path d="M23.6668 19.9018V12.0422C23.6668 11.2852 23.6661 10.9065 23.5741 10.5543C23.4925 10.2422 23.3586 9.94675 23.1774 9.67981C22.9729 9.37859 22.6887 9.1288 22.119 8.63032L15.319 2.68032C14.2613 1.75484 13.7324 1.29233 13.1372 1.11632C12.6128 0.961227 12.0538 0.961227 11.5294 1.11632C10.9347 1.29219 10.4066 1.75427 9.35047 2.67836L2.54822 8.63033C1.97853 9.1288 1.69435 9.37859 1.48987 9.67981C1.30866 9.94675 1.17373 10.2422 1.09216 10.5543C1.00012 10.9065 1.00012 11.2852 1.00012 12.0422V19.9018C1.00012 21.222 1.00012 21.8818 1.2158 22.4025C1.50336 23.0967 2.05457 23.649 2.74882 23.9365C3.2695 24.1522 3.92959 24.1522 5.24976 24.1522C6.56992 24.1522 7.23074 24.1522 7.75142 23.9365C8.44567 23.649 8.99674 23.0969 9.2843 22.4026C9.49998 21.8819 9.50012 21.2218 9.50012 19.9017V18.485C9.50012 16.9202 10.7686 15.6517 12.3335 15.6517C13.8983 15.6517 15.1668 16.9202 15.1668 18.485V19.9017C15.1668 21.2218 15.1668 21.8819 15.3825 22.4026C15.67 23.0969 16.2212 23.649 16.9155 23.9365C17.4362 24.1522 18.0963 24.1522 19.4164 24.1522C20.7366 24.1522 21.3974 24.1522 21.9181 23.9365C22.6123 23.649 23.1634 23.0967 23.451 22.4025C23.6666 21.8818 23.6668 21.222 23.6668 19.9018Z" stroke="currentColor" stroke-width="2" stroke-linecap="round" stroke-linejoin="round"/>
</svg>