<svg width="34" height="34" viewBox="0 0 34 34" fill="none" xmlns="http://www.w3.org/2000/svg">
<path d="M28.3333 24.0834V16.2239C28.3333 15.4669 28.3326 15.0882 28.2406 14.7359C28.159 14.4238 28.0251 14.1284 27.8439 13.8615C27.6394 13.5602 27.3552 13.3104 26.7855 12.812L19.9855 6.86196C18.9278 5.93648 18.3989 5.47397 17.8038 5.29796C17.2793 5.14287 16.7203 5.14287 16.1959 5.29796C15.6012 5.47384 15.0731 5.93591 14.017 6.86L7.21472 12.812C6.64503 13.3104 6.36085 13.5602 6.15637 13.8615C5.97516 14.1284 5.84024 14.4238 5.75867 14.7359C5.66663 15.0882 5.66663 15.4669 5.66663 16.2239V24.0834C5.66663 25.4036 5.66663 26.0634 5.8823 26.5841C6.16987 27.2784 6.72108 27.8306 7.41532 28.1182C7.93601 28.3339 8.59609 28.3339 9.91626 28.3339C11.2364 28.3339 11.8972 28.3339 12.4179 28.1182C13.1122 27.8306 13.6632 27.2785 13.9508 26.5843C14.1665 26.0636 14.1666 25.4035 14.1666 24.0833V22.6667C14.1666 21.1018 15.4352 19.8333 17 19.8333C18.5648 19.8333 19.8333 21.1018 19.8333 22.6667V24.0833C19.8333 25.4035 19.8333 26.0636 20.049 26.5843C20.3365 27.2785 20.8877 27.8306 21.582 28.1182C22.1027 28.3339 22.7628 28.3339 24.0829 28.3339C25.4031 28.3339 26.0639 28.3339 26.5846 28.1182C27.2788 27.8306 27.8299 27.2784 28.1175 26.5841C28.3331 26.0634 28.3333 25.4036 28.3333 24.0834Z" stroke="#8D8D8D" stroke-width="2" stroke-linecap="round" stroke-linejoin="round"/>
</svg>
