<svg width="24" height="24" viewBox="0 0 24 24" fill="none" xmlns="http://www.w3.org/2000/svg">
<path d="M19.9092 10.4475C19.9092 16.493 11.9092 21.6748 11.9092 21.6748C11.9092 21.6748 3.90918 16.493 3.90918 10.4475C3.90918 8.38608 4.75203 6.40905 6.25233 4.95138C7.75262 3.49371 9.78745 2.6748 11.9092 2.6748C14.0309 2.6748 16.0657 3.49371 17.566 4.95138C19.0663 6.40905 19.9092 8.38608 19.9092 10.4475Z" stroke="#8D8D8D" stroke-width="1.5" stroke-linecap="round" stroke-linejoin="round"/>
<path d="M12 12.6748C13.3807 12.6748 14.5 11.5555 14.5 10.1748C14.5 8.79409 13.3807 7.6748 12 7.6748C10.6193 7.6748 9.5 8.79409 9.5 10.1748C9.5 11.5555 10.6193 12.6748 12 12.6748Z" stroke="#8D8D8D" stroke-width="1.5" stroke-linecap="round" stroke-linejoin="round"/>
</svg>
