<svg width="88" height="88" viewBox="0 0 88 88" fill="none" xmlns="http://www.w3.org/2000/svg">
<rect x="0.25" y="0.25" width="87.5" height="87.5" rx="43.75" stroke="#64748B" stroke-opacity="0.26" stroke-width="0.5"/>
<path d="M14.667 67.8338C14.667 52.871 36.667 53.1671 44.0003 53.1671C51.3337 53.1671 73.3337 52.871 73.3337 67.8338M58.667 25.6667C58.667 33.7668 52.1005 40.3333 44.0003 40.3333C35.9001 40.3333 29.3337 33.7668 29.3337 25.6667C29.3337 17.5665 35.9001 11 44.0003 11C52.1005 11 58.667 17.5665 58.667 25.6667Z" stroke="#64748B" stroke-width="5" stroke-linecap="round" stroke-linejoin="round"/>
<path d="M68.8333 36.625V34.75C68.8333 32.6789 70.475 31 72.5 31C74.525 31 76.1667 32.6789 76.1667 34.75V36.625M67 36.625H78V46H67V36.625Z" stroke="#64748B" stroke-width="2" stroke-linecap="round" stroke-linejoin="round"/>
</svg>
