<svg width="22" height="22" viewBox="0 0 22 22" fill="none" xmlns="http://www.w3.org/2000/svg">
<g id="Interface / Log_Out">
<path id="Vector" d="M11.0003 13.7501L13.7503 11.0001M13.7503 11.0001L11.0003 8.25008M13.7503 11.0001H3.66699M8.25033 6.64462V6.60026C8.25033 5.5735 8.25033 5.05973 8.45015 4.66756C8.62591 4.3226 8.90618 4.04234 9.25114 3.86657C9.64331 3.66675 10.1571 3.66675 11.1838 3.66675H15.4005C16.4273 3.66675 16.9399 3.66675 17.3321 3.86657C17.6771 4.04234 17.9583 4.3226 18.134 4.66756C18.3337 5.05935 18.3337 5.57249 18.3337 6.59725V15.4034C18.3337 16.4281 18.3337 16.9405 18.134 17.3323C17.9583 17.6773 17.6771 17.958 17.3321 18.1338C16.9403 18.3334 16.4279 18.3334 15.4032 18.3334H11.1808C10.1561 18.3334 9.64293 18.3334 9.25114 18.1338C8.90618 17.958 8.62591 17.677 8.45015 17.332C8.25033 16.9399 8.25033 16.4268 8.25033 15.4001V15.3542" stroke="#FA8EB2" stroke-width="2" stroke-linecap="round" stroke-linejoin="round"/>
</g>
</svg>
