<svg fill="none" xmlns="http://www.w3.org/2000/svg" viewBox="3.16 1.93 17.5 20.5"> <path d="M19.9092 10.448C19.9092 16.4935 11.9092 21.6753 11.9092 21.6753C11.9092 21.6753 3.90918 16.4935 3.90918 10.448C3.90918 8.38656 4.75203 6.40954 6.25233 4.95187C7.75262 3.4942 9.78745 2.67529 11.9092 2.67529C14.0309 2.67529 16.0657 3.4942 17.566 4.95187C19.0663 6.40954 19.9092 8.38656 19.9092 10.448Z" stroke="currentColor" stroke-width="1.5" stroke-linecap="round" stroke-linejoin="round"></path> <path d="M12 12.6753C13.3807 12.6753 14.5 11.556 14.5 10.1753C14.5 8.79458 13.3807 7.67529 12 7.67529C10.6193 7.67529 9.5 8.79458 9.5 10.1753C9.5 11.556 10.6193 12.6753 12 12.6753Z" stroke="currentColor" stroke-width="1.5" stroke-linecap="round" stroke-linejoin="round"></path> </svg>