<svg width="24" height="24" viewBox="0 0 24 24" fill="none" xmlns="http://www.w3.org/2000/svg">
<path d="M19.082 20.3306C19.082 21.1128 19.7163 21.747 20.4987 21.747C21.2811 21.747 21.9154 21.1128 21.9154 20.3306C21.9154 19.5483 21.2811 18.9141 20.4987 18.9141C19.7163 18.9141 19.082 19.5483 19.082 20.3306Z" fill="#8D8D8D"/>
<path d="M10.582 20.3306C10.582 21.1128 11.2163 21.747 11.9987 21.747C12.7811 21.747 13.4154 21.1128 13.4154 20.3306C13.4154 19.5483 12.7811 18.9141 11.9987 18.9141C11.2163 18.9141 10.582 19.5483 10.582 20.3306Z" fill="#8D8D8D"/>
<path d="M2.08203 20.3306C2.08203 21.1128 2.71629 21.747 3.4987 21.747C4.2811 21.747 4.91536 21.1128 4.91536 20.3306C4.91536 19.5483 4.2811 18.9141 3.4987 18.9141C2.71629 18.9141 2.08203 19.5483 2.08203 20.3306Z" fill="#8D8D8D"/>
<path d="M19.082 11.832C19.082 12.6143 19.7163 13.2484 20.4987 13.2484C21.2811 13.2484 21.9154 12.6143 21.9154 11.832C21.9154 11.0497 21.2811 10.4156 20.4987 10.4156C19.7163 10.4156 19.082 11.0497 19.082 11.832Z" fill="#8D8D8D"/>
<path d="M10.582 11.832C10.582 12.6143 11.2163 13.2484 11.9987 13.2484C12.7811 13.2484 13.4154 12.6143 13.4154 11.832C13.4154 11.0497 12.7811 10.4156 11.9987 10.4156C11.2163 10.4156 10.582 11.0497 10.582 11.832Z" fill="#8D8D8D"/>
<path d="M2.08203 11.832C2.08203 12.6143 2.71629 13.2484 3.4987 13.2484C4.2811 13.2484 4.91536 12.6143 4.91536 11.832C4.91536 11.0497 4.2811 10.4156 3.4987 10.4156C2.71629 10.4156 2.08203 11.0497 2.08203 11.832Z" fill="#8D8D8D"/>
<path d="M19.082 3.33342C19.082 4.11569 19.7163 4.74985 20.4987 4.74985C21.2811 4.74985 21.9154 4.11569 21.9154 3.33342C21.9154 2.55115 21.2811 1.91699 20.4987 1.91699C19.7163 1.91699 19.082 2.55115 19.082 3.33342Z" fill="#8D8D8D"/>
<path d="M10.582 3.33342C10.582 4.11569 11.2163 4.74985 11.9987 4.74985C12.7811 4.74985 13.4154 4.11569 13.4154 3.33342C13.4154 2.55115 12.7811 1.91699 11.9987 1.91699C11.2163 1.91699 10.582 2.55115 10.582 3.33342Z" fill="#8D8D8D"/>
<path d="M2.08203 3.33342C2.08203 4.11569 2.71629 4.74985 3.4987 4.74985C4.2811 4.74985 4.91536 4.11569 4.91536 3.33342C4.91536 2.55115 4.2811 1.91699 3.4987 1.91699C2.71629 1.91699 2.08203 2.55115 2.08203 3.33342Z" fill="#8D8D8D"/>
<path d="M19.082 20.3306C19.082 21.1128 19.7163 21.747 20.4987 21.747C21.2811 21.747 21.9154 21.1128 21.9154 20.3306C21.9154 19.5483 21.2811 18.9141 20.4987 18.9141C19.7163 18.9141 19.082 19.5483 19.082 20.3306Z" stroke="#8D8D8D" stroke-width="3" stroke-linecap="round" stroke-linejoin="round"/>
<path d="M10.582 20.3306C10.582 21.1128 11.2163 21.747 11.9987 21.747C12.7811 21.747 13.4154 21.1128 13.4154 20.3306C13.4154 19.5483 12.7811 18.9141 11.9987 18.9141C11.2163 18.9141 10.582 19.5483 10.582 20.3306Z" stroke="#8D8D8D" stroke-width="3" stroke-linecap="round" stroke-linejoin="round"/>
<path d="M2.08203 20.3306C2.08203 21.1128 2.71629 21.747 3.4987 21.747C4.2811 21.747 4.91536 21.1128 4.91536 20.3306C4.91536 19.5483 4.2811 18.9141 3.4987 18.9141C2.71629 18.9141 2.08203 19.5483 2.08203 20.3306Z" stroke="#8D8D8D" stroke-width="3" stroke-linecap="round" stroke-linejoin="round"/>
<path d="M19.082 11.832C19.082 12.6143 19.7163 13.2484 20.4987 13.2484C21.2811 13.2484 21.9154 12.6143 21.9154 11.832C21.9154 11.0497 21.2811 10.4156 20.4987 10.4156C19.7163 10.4156 19.082 11.0497 19.082 11.832Z" stroke="#8D8D8D" stroke-width="3" stroke-linecap="round" stroke-linejoin="round"/>
<path d="M10.582 11.832C10.582 12.6143 11.2163 13.2484 11.9987 13.2484C12.7811 13.2484 13.4154 12.6143 13.4154 11.832C13.4154 11.0497 12.7811 10.4156 11.9987 10.4156C11.2163 10.4156 10.582 11.0497 10.582 11.832Z" stroke="#8D8D8D" stroke-width="3" stroke-linecap="round" stroke-linejoin="round"/>
<path d="M2.08203 11.832C2.08203 12.6143 2.71629 13.2484 3.4987 13.2484C4.2811 13.2484 4.91536 12.6143 4.91536 11.832C4.91536 11.0497 4.2811 10.4156 3.4987 10.4156C2.71629 10.4156 2.08203 11.0497 2.08203 11.832Z" stroke="#8D8D8D" stroke-width="3" stroke-linecap="round" stroke-linejoin="round"/>
<path d="M19.082 3.33342C19.082 4.11569 19.7163 4.74985 20.4987 4.74985C21.2811 4.74985 21.9154 4.11569 21.9154 3.33342C21.9154 2.55115 21.2811 1.91699 20.4987 1.91699C19.7163 1.91699 19.082 2.55115 19.082 3.33342Z" stroke="#8D8D8D" stroke-width="3" stroke-linecap="round" stroke-linejoin="round"/>
<path d="M10.582 3.33342C10.582 4.11569 11.2163 4.74985 11.9987 4.74985C12.7811 4.74985 13.4154 4.11569 13.4154 3.33342C13.4154 2.55115 12.7811 1.91699 11.9987 1.91699C11.2163 1.91699 10.582 2.55115 10.582 3.33342Z" stroke="#8D8D8D" stroke-width="3" stroke-linecap="round" stroke-linejoin="round"/>
<path d="M2.08203 3.33342C2.08203 4.11569 2.71629 4.74985 3.4987 4.74985C4.2811 4.74985 4.91536 4.11569 4.91536 3.33342C4.91536 2.55115 4.2811 1.91699 3.4987 1.91699C2.71629 1.91699 2.08203 2.55115 2.08203 3.33342Z" stroke="#8D8D8D" stroke-width="3" stroke-linecap="round" stroke-linejoin="round"/>
</svg>
