<svg width="24" height="24" viewBox="0 0 24 24" fill="none" xmlns="http://www.w3.org/2000/svg">
<path d="M19.083 20.3306C19.083 21.1128 19.7173 21.747 20.4997 21.747C21.2821 21.747 21.9163 21.1128 21.9163 20.3306C21.9163 19.5483 21.2821 18.9141 20.4997 18.9141C19.7173 18.9141 19.083 19.5483 19.083 20.3306Z" fill="#8C67F6"/>
<path d="M10.583 20.3306C10.583 21.1128 11.2173 21.747 11.9997 21.747C12.7821 21.747 13.4163 21.1128 13.4163 20.3306C13.4163 19.5483 12.7821 18.9141 11.9997 18.9141C11.2173 18.9141 10.583 19.5483 10.583 20.3306Z" fill="#8C67F6"/>
<path d="M2.08301 20.3306C2.08301 21.1128 2.71727 21.747 3.49967 21.747C4.28208 21.747 4.91634 21.1128 4.91634 20.3306C4.91634 19.5483 4.28208 18.9141 3.49967 18.9141C2.71727 18.9141 2.08301 19.5483 2.08301 20.3306Z" fill="#8C67F6"/>
<path d="M19.083 11.832C19.083 12.6143 19.7173 13.2484 20.4997 13.2484C21.2821 13.2484 21.9163 12.6143 21.9163 11.832C21.9163 11.0497 21.2821 10.4156 20.4997 10.4156C19.7173 10.4156 19.083 11.0497 19.083 11.832Z" fill="#8C67F6"/>
<path d="M10.583 11.832C10.583 12.6143 11.2173 13.2484 11.9997 13.2484C12.7821 13.2484 13.4163 12.6143 13.4163 11.832C13.4163 11.0497 12.7821 10.4156 11.9997 10.4156C11.2173 10.4156 10.583 11.0497 10.583 11.832Z" fill="#8C67F6"/>
<path d="M2.08301 11.832C2.08301 12.6143 2.71727 13.2484 3.49967 13.2484C4.28208 13.2484 4.91634 12.6143 4.91634 11.832C4.91634 11.0497 4.28208 10.4156 3.49967 10.4156C2.71727 10.4156 2.08301 11.0497 2.08301 11.832Z" fill="#8C67F6"/>
<path d="M19.083 3.33342C19.083 4.11569 19.7173 4.74985 20.4997 4.74985C21.2821 4.74985 21.9163 4.11569 21.9163 3.33342C21.9163 2.55115 21.2821 1.91699 20.4997 1.91699C19.7173 1.91699 19.083 2.55115 19.083 3.33342Z" fill="#8C67F6"/>
<path d="M10.583 3.33342C10.583 4.11569 11.2173 4.74985 11.9997 4.74985C12.7821 4.74985 13.4163 4.11569 13.4163 3.33342C13.4163 2.55115 12.7821 1.91699 11.9997 1.91699C11.2173 1.91699 10.583 2.55115 10.583 3.33342Z" fill="#8C67F6"/>
<path d="M2.08301 3.33342C2.08301 4.11569 2.71727 4.74985 3.49967 4.74985C4.28208 4.74985 4.91634 4.11569 4.91634 3.33342C4.91634 2.55115 4.28208 1.91699 3.49967 1.91699C2.71727 1.91699 2.08301 2.55115 2.08301 3.33342Z" fill="#8C67F6"/>
<path d="M19.083 20.3306C19.083 21.1128 19.7173 21.747 20.4997 21.747C21.2821 21.747 21.9163 21.1128 21.9163 20.3306C21.9163 19.5483 21.2821 18.9141 20.4997 18.9141C19.7173 18.9141 19.083 19.5483 19.083 20.3306Z" stroke="#8C67F6" stroke-width="3" stroke-linecap="round" stroke-linejoin="round"/>
<path d="M10.583 20.3306C10.583 21.1128 11.2173 21.747 11.9997 21.747C12.7821 21.747 13.4163 21.1128 13.4163 20.3306C13.4163 19.5483 12.7821 18.9141 11.9997 18.9141C11.2173 18.9141 10.583 19.5483 10.583 20.3306Z" stroke="#8C67F6" stroke-width="3" stroke-linecap="round" stroke-linejoin="round"/>
<path d="M2.08301 20.3306C2.08301 21.1128 2.71727 21.747 3.49967 21.747C4.28208 21.747 4.91634 21.1128 4.91634 20.3306C4.91634 19.5483 4.28208 18.9141 3.49967 18.9141C2.71727 18.9141 2.08301 19.5483 2.08301 20.3306Z" stroke="#8C67F6" stroke-width="3" stroke-linecap="round" stroke-linejoin="round"/>
<path d="M19.083 11.832C19.083 12.6143 19.7173 13.2484 20.4997 13.2484C21.2821 13.2484 21.9163 12.6143 21.9163 11.832C21.9163 11.0497 21.2821 10.4156 20.4997 10.4156C19.7173 10.4156 19.083 11.0497 19.083 11.832Z" stroke="#8C67F6" stroke-width="3" stroke-linecap="round" stroke-linejoin="round"/>
<path d="M10.583 11.832C10.583 12.6143 11.2173 13.2484 11.9997 13.2484C12.7821 13.2484 13.4163 12.6143 13.4163 11.832C13.4163 11.0497 12.7821 10.4156 11.9997 10.4156C11.2173 10.4156 10.583 11.0497 10.583 11.832Z" stroke="#8C67F6" stroke-width="3" stroke-linecap="round" stroke-linejoin="round"/>
<path d="M2.08301 11.832C2.08301 12.6143 2.71727 13.2484 3.49967 13.2484C4.28208 13.2484 4.91634 12.6143 4.91634 11.832C4.91634 11.0497 4.28208 10.4156 3.49967 10.4156C2.71727 10.4156 2.08301 11.0497 2.08301 11.832Z" stroke="#8C67F6" stroke-width="3" stroke-linecap="round" stroke-linejoin="round"/>
<path d="M19.083 3.33342C19.083 4.11569 19.7173 4.74985 20.4997 4.74985C21.2821 4.74985 21.9163 4.11569 21.9163 3.33342C21.9163 2.55115 21.2821 1.91699 20.4997 1.91699C19.7173 1.91699 19.083 2.55115 19.083 3.33342Z" stroke="#8C67F6" stroke-width="3" stroke-linecap="round" stroke-linejoin="round"/>
<path d="M10.583 3.33342C10.583 4.11569 11.2173 4.74985 11.9997 4.74985C12.7821 4.74985 13.4163 4.11569 13.4163 3.33342C13.4163 2.55115 12.7821 1.91699 11.9997 1.91699C11.2173 1.91699 10.583 2.55115 10.583 3.33342Z" stroke="#8C67F6" stroke-width="3" stroke-linecap="round" stroke-linejoin="round"/>
<path d="M2.08301 3.33342C2.08301 4.11569 2.71727 4.74985 3.49967 4.74985C4.28208 4.74985 4.91634 4.11569 4.91634 3.33342C4.91634 2.55115 4.28208 1.91699 3.49967 1.91699C2.71727 1.91699 2.08301 2.55115 2.08301 3.33342Z" stroke="#8C67F6" stroke-width="3" stroke-linecap="round" stroke-linejoin="round"/>
</svg>