<svg xmlns="http://www.w3.org/2000/svg" fill="none" viewBox="0 0 27.5 27.5">
<path d="M21.1402 24.1374C19.3245 22.1095 16.6863 20.8333 13.75 20.8333C10.8137 20.8333 8.17531 22.1095 6.35954 24.1374M13.75 26.5C6.70837 26.5 1 20.7916 1 13.75C1 6.70837 6.70837 1 13.75 1C20.7916 1 26.5 6.70837 26.5 13.75C26.5 20.7916 20.7916 26.5 13.75 26.5ZM13.75 16.5833C11.4028 16.5833 9.5 14.6805 9.5 12.3333C9.5 9.98612 11.4028 8.08333 13.75 8.08333C16.0972 8.08333 18 9.98612 18 12.3333C18 14.6805 16.0972 16.5833 13.75 16.5833Z" stroke="currentColor" stroke-width="2" stroke-linecap="round" stroke-linejoin="round"/>
</svg>