<svg width="38" height="39" viewBox="0 0 38 39" fill="none" xmlns="http://www.w3.org/2000/svg">
<g id="Communication / Paper_Plane">
<path id="Vector" d="M16.32 22.1796L23.9931 14.5066M31.8422 9.82381L25.3654 30.8736C24.7849 32.76 24.4945 33.7037 23.9939 34.0165C23.5596 34.2878 23.022 34.3331 22.5491 34.1369C22.0038 33.9106 21.5612 33.027 20.6782 31.2611L16.5759 23.0564C16.4358 22.7762 16.3656 22.6366 16.272 22.5152C16.189 22.4075 16.0931 22.3104 15.9854 22.2274C15.8667 22.1359 15.7295 22.0673 15.4618 21.9335L7.23823 17.8217C5.47233 16.9387 4.5893 16.4968 4.36302 15.9515C4.16679 15.4786 4.21154 14.9404 4.48286 14.5062C4.7957 14.0055 5.7393 13.7146 7.62633 13.134L28.6761 6.65715C30.1596 6.20068 30.9017 5.97263 31.4028 6.15659C31.8392 6.31682 32.1833 6.66058 32.3435 7.09705C32.5274 7.5979 32.2992 8.33958 31.8432 9.82162L31.8422 9.82381Z" stroke="white" stroke-width="2" stroke-linecap="round" stroke-linejoin="round"/>
</g>
</svg>
