<svg width="20" height="26" viewBox="0 0 20 26" fill="none" xmlns="http://www.w3.org/2000/svg">
<path d="M1.5 5.86678V19.3046C1.5 21.2328 1.5 22.1968 1.78917 22.7867C2.32513 23.8803 3.49973 24.5088 4.70687 24.3481C5.35816 24.2615 6.16032 23.7267 7.76464 22.6571L7.76849 22.6545C8.40439 22.2306 8.72238 22.0186 9.05502 21.901C9.66596 21.6851 10.3326 21.6851 10.9435 21.901C11.2768 22.0188 11.5961 22.2317 12.2345 22.6573C13.8389 23.7269 14.6419 24.2613 15.2932 24.3479C16.5003 24.5085 17.6749 23.8803 18.2109 22.7867C18.5 22.1968 18.5 21.2325 18.5 19.3046V5.86213C18.5 4.27836 18.5 3.48529 18.1915 2.87978C17.9198 2.34663 17.4853 1.91348 16.9521 1.64183C16.3461 1.33301 15.5538 1.33301 13.9669 1.33301H6.03361C4.44679 1.33301 3.6528 1.33301 3.04671 1.64183C2.51359 1.91348 2.08046 2.34663 1.80881 2.87978C1.5 3.48588 1.5 4.27991 1.5 5.86678Z" stroke="#8D8D8D" stroke-width="2" stroke-linecap="round" stroke-linejoin="round"/>
</svg>
