<svg fill="none" xmlns="http://www.w3.org/2000/svg" viewBox="0 0 21 21"> <path fill-rule="evenodd" clip-rule="evenodd" d="M10.0924 0C15.6573 0 20.1838 4.42666 20.1838 9.86878C20.1838 12.4364 19.1762 14.7781 17.5274 16.5356L20.7718 19.7018C21.0754 19.9987 21.0764 20.4791 20.7728 20.776C20.6215 20.926 20.4215 21 20.2225 21C20.0246 21 19.8256 20.926 19.6733 20.7781L16.3898 17.5759C14.6625 18.9287 12.4724 19.7386 10.0924 19.7386C4.52754 19.7386 0 15.3109 0 9.86878C0 4.42666 4.52754 0 10.0924 0ZM10.0924 1.52015C5.38455 1.52015 1.55443 5.26477 1.55443 9.86878C1.55443 14.4728 5.38455 18.2184 10.0924 18.2184C14.7992 18.2184 18.6293 14.4728 18.6293 9.86878C18.6293 5.26477 14.7992 1.52015 10.0924 1.52015Z" fill="#8F8F8F"></path> </svg>