<svg width="21" height="22" viewBox="0 0 21 22" fill="none" xmlns="http://www.w3.org/2000/svg">
<path fill-rule="evenodd" clip-rule="evenodd" d="M10.0924 0.5C15.6573 0.5 20.1838 4.92666 20.1838 10.3688C20.1838 12.9364 19.1762 15.2781 17.5274 17.0356L20.7718 20.2018C21.0754 20.4987 21.0764 20.9791 20.7728 21.276C20.6215 21.426 20.4215 21.5 20.2225 21.5C20.0246 21.5 19.8256 21.426 19.6733 21.2781L16.3898 18.0759C14.6625 19.4287 12.4724 20.2386 10.0924 20.2386C4.52754 20.2386 0 15.8109 0 10.3688C0 4.92666 4.52754 0.5 10.0924 0.5ZM10.0924 2.02015C5.38455 2.02015 1.55443 5.76477 1.55443 10.3688C1.55443 14.9728 5.38455 18.7184 10.0924 18.7184C14.7992 18.7184 18.6293 14.9728 18.6293 10.3688C18.6293 5.76477 14.7992 2.02015 10.0924 2.02015Z" fill="#8F8F8F"/>
</svg>
