<svg fill="none" xmlns="http://www.w3.org/2000/svg" viewBox="0 0 16.67 16.67"> <path d="M8.33333 11.0833L11.0833 8.33333M11.0833 8.33333L8.33333 5.58333M11.0833 8.33333H1M5.58333 3.97787V3.93351C5.58333 2.90675 5.58333 2.39299 5.78315 2.00081C5.95892 1.65585 6.23918 1.37559 6.58415 1.19982C6.97632 1 7.49008 1 8.51685 1H12.7335C13.7603 1 14.2729 1 14.6651 1.19982C15.0101 1.37559 15.2913 1.65585 15.467 2.00081C15.6667 2.3926 15.6667 2.90574 15.6667 3.9305V12.7366C15.6667 13.7614 15.6667 14.2738 15.467 14.6656C15.2913 15.0105 15.0101 15.2913 14.6651 15.467C14.2733 15.6667 13.7609 15.6667 12.7362 15.6667H8.51383C7.48908 15.6667 6.97593 15.6667 6.58415 15.467C6.23918 15.2913 5.95892 15.0103 5.78315 14.6653C5.58333 14.2731 5.58333 13.7601 5.58333 12.7333V12.6875" stroke="#FA8EB2" stroke-width="2" stroke-linecap="round" stroke-linejoin="round"></path> </svg>