<svg width="161" height="45" viewBox="0 0 161 45" fill="none" xmlns="http://www.w3.org/2000/svg">
<path fill-rule="evenodd" clip-rule="evenodd" d="M107.999 20L117 24.7755V34.325L107.999 39.0992L99 34.325V24.7755L107.999 20ZM107.999 22.7731L114.388 26.1613V30.6285L110.104 28.3567V35.211L107.999 36.3274L105.895 35.211V28.3567L101.612 30.6285V26.1613L107.999 22.7731Z" fill="black"/>
<path d="M2.745 44V10.61H11.295V44H2.745ZM16.8514 44V19.61H25.4014V44H16.8514ZM21.1264 16.91C19.5664 16.91 18.3064 16.475 17.3464 15.605C16.3864 14.735 15.9064 13.655 15.9064 12.365C15.9064 11.075 16.3864 9.995 17.3464 9.125C18.3064 8.255 19.5664 7.82 21.1264 7.82C22.6864 7.82 23.9464 8.24 24.9064 9.08C25.8664 9.89 26.3464 10.94 26.3464 12.23C26.3464 13.58 25.8664 14.705 24.9064 15.605C23.9764 16.475 22.7164 16.91 21.1264 16.91ZM46.8429 19.205C48.7329 19.205 50.4429 19.595 51.9729 20.375C53.5029 21.125 54.7029 22.295 55.5729 23.885C56.4729 25.475 56.9229 27.53 56.9229 30.05V44H48.3729V31.445C48.3729 29.705 48.0129 28.445 47.2929 27.665C46.6029 26.855 45.6279 26.45 44.3679 26.45C43.4679 26.45 42.6429 26.66 41.8929 27.08C41.1429 27.47 40.5579 28.085 40.1379 28.925C39.7179 29.765 39.5079 30.86 39.5079 32.21V44H30.9579V19.61H39.1029V26.54L37.5279 24.515C38.4579 22.745 39.7329 21.425 41.3529 20.555C42.9729 19.655 44.8029 19.205 46.8429 19.205ZM69.4009 39.5L69.6259 29.285L79.5709 19.61H89.6959L78.6709 30.995L74.3059 34.505L69.4009 39.5ZM62.2909 44V10.61H70.8409V44H62.2909ZM80.2009 44L72.7309 34.64L78.0409 28.07L90.5509 44H80.2009ZM108.081 44.63C103.431 44.63 99.8005 43.355 97.1905 40.805C94.5805 38.255 93.2755 34.64 93.2755 29.96V12.5H102.186V29.69C102.186 32.39 102.711 34.325 103.761 35.495C104.841 36.665 106.311 37.25 108.171 37.25C110.031 37.25 111.486 36.665 112.536 35.495C113.586 34.325 114.111 32.39 114.111 29.69V12.5H122.886V29.96C122.886 34.64 121.581 38.255 118.971 40.805C116.361 43.355 112.731 44.63 108.081 44.63ZM128.921 44V12.5H143.321C146.201 12.5 148.676 12.965 150.746 13.895C152.846 14.825 154.466 16.175 155.606 17.945C156.746 19.685 157.316 21.755 157.316 24.155C157.316 26.525 156.746 28.58 155.606 30.32C154.466 32.06 152.846 33.41 150.746 34.37C148.676 35.3 146.201 35.765 143.321 35.765H133.871L137.831 31.895V44H128.921ZM137.831 32.84L133.871 28.745H142.781C144.641 28.745 146.021 28.34 146.921 27.53C147.851 26.72 148.316 25.595 148.316 24.155C148.316 22.685 147.851 21.545 146.921 20.735C146.021 19.925 144.641 19.52 142.781 19.52H133.871L137.831 15.425V32.84Z" fill="white"/>
</svg>
